<?xml version="1.0" encoding="utf-8"?>
<!-- Generator: Adobe Illustrator 18.1.0, SVG Export Plug-In . SVG Version: 6.00 Build 0)  -->
<svg version="1.1" id="Capa_1" xmlns="http://www.w3.org/2000/svg" xmlns:xlink="http://www.w3.org/1999/xlink" x="0px" y="0px"
	 viewBox="200 0 560 560" enable-background="new 200 0 560 560" xml:space="preserve">
<g id="Search">
	<path d="M746.3,480.1L624.6,358.5c-0.6-0.6-1.4-1.1-2.1-1.7c23.9-36.3,37.9-79.8,37.9-126.5C660.5,103.1,557.4,0,430.2,0
		S200,103.1,200,230.2c0,127.2,103.1,230.2,230.2,230.2c46.7,0,90.2-14,126.5-37.9c0.6,0.7,1.1,1.4,1.7,2.1l121.7,121.7
		c18.3,18.3,47.9,18.3,66.2,0C764.6,528,764.6,498.4,746.3,480.1z M430.2,380.7c-83.1,0-150.4-67.3-150.4-150.4
		c0-83.1,67.3-150.4,150.4-150.4c83.1,0,150.4,67.3,150.4,150.4S513.3,380.7,430.2,380.7z"/>
</g>
</svg>
