<?xml version="1.0" encoding="utf-8"?>
<!-- Generator: Adobe Illustrator 18.1.0, SVG Export Plug-In . SVG Version: 6.00 Build 0)  -->
<svg version="1.1" id="Capa_1" xmlns="http://www.w3.org/2000/svg" xmlns:xlink="http://www.w3.org/1999/xlink" x="0px" y="0px"
	 viewBox="-956.7 -219.2 1000 1000" enable-background="new -956.7 -219.2 1000 1000" xml:space="preserve">
<g>
	<path d="M9.5-22.2l-303,303l303,303C54.6,628.9,54.6,702,9.5,747c-22.5,22.5-52,33.8-81.6,33.8c-29.6,0-59.1-11.3-81.6-33.8
		l-303.1-303l-303,303c-22.5,22.5-52,33.8-81.6,33.8c-29.5,0-59-11.3-81.6-33.8c-45.1-45.1-45.1-118.1,0-163.2l303-303l-303-303
		c-45.1-45.1-45.1-118.1,0-163.2c45.1-45,118.1-45,163.1,0l303.1,303l303-303c45.1-45,118.1-45,163.2,0
		C54.6-140.3,54.6-67.3,9.5-22.2z"/>
</g>
</svg>
