<?xml version="1.0" encoding="utf-8"?>
<!-- Generator: Adobe Illustrator 18.1.0, SVG Export Plug-In . SVG Version: 6.00 Build 0)  -->
<svg version="1.1" id="Capa_1" xmlns="http://www.w3.org/2000/svg" xmlns:xlink="http://www.w3.org/1999/xlink" x="0px" y="0px"
	 viewBox="-263.4 206.6 618.8 618.8" enable-background="new -263.4 206.6 618.8 618.8" xml:space="preserve">
<g>
	<path id="Facebook__x28_alt_x29_" d="M354.2,380.8c8.5-48.4-27.3-99.6-75.7-108.1l-367.7-64.8c-48.4-8.5-99.6,27.3-108.1,75.7
		l-64.8,367.7c-8.5,48.4,27.3,99.6,75.7,108.1l183.8,32.4l36.7-208.3l-67.4-11.9l16.2-91.9l67.4,11.9l6.3-35.5
		c10.9-61.9,67.3-109.4,124.3-99.4l74.1,13.1l-16.2,91.9l-74.1-13.1c-8-1.4-19.5,6.7-22.1,21.4l-6.5,36.8l91.9,16.2l-16.2,91.9
		l-91.9-16.2L83.2,806.9l98,17.3c48.4,8.5,99.6-27.3,108.1-75.7L354.2,380.8z"/>
</g>
</svg>
