<?xml version="1.0" encoding="utf-8"?>
<!-- Generator: Adobe Illustrator 18.1.0, SVG Export Plug-In . SVG Version: 6.00 Build 0)  -->
<svg version="1.1" id="Capa_1" xmlns="http://www.w3.org/2000/svg" xmlns:xlink="http://www.w3.org/1999/xlink" x="0px" y="0px"
	 viewBox="-263.1 199.5 626.2 626.2" enable-background="new -263.1 199.5 626.2 626.2" xml:space="preserve">
<g>
	<path d="M-203.6,273l409.9-72.3c39.1-6.9,75.9,16.4,83.3,58.3l72.3,409.9c7.4,41.9-19.2,76.4-58.3,83.3l-409.9,72.3
		c-39.1,6.9-75.9-16.4-83.3-58.3l-72.3-409.9C-269.3,314.4-242.7,279.9-203.6,273L-203.6,273z M137.9,275.8
		c-13.6,2.4-22.9,15.7-20.5,29.3l10.5,59.5c2.4,13.6,15.7,22.9,29.3,20.5l62.3-11c13.6-2.4,22.9-15.7,20.5-29.3l-10.5-59.5
		c-2.4-13.6-15.7-22.9-29.3-20.5L137.9,275.8L137.9,275.8z M256,432.5l-48.7,8.6c7.1,13.9,12.9,29.8,15.7,46.3
		c16.2,91.7-47.8,179.5-142.3,196.2c-94.6,16.7-184.6-43.9-200.8-135.6c-2.9-16.4-3.4-32.7-1-48.9l-50.4,8.9l41,232.7
		c2.1,11.9,13.5,20.4,26,18.2l383.9-67.7c11.9-2.1,20.4-13.5,18.2-26L256,432.5L256,432.5z M31.4,403.8
		c-61.2,10.8-102.5,67.7-92,127.1s68.8,98.8,129.9,88c61.2-10.8,102.5-67.7,92-127.1S92.5,393,31.4,403.8z"/>
</g>
</svg>
