<?xml version="1.0" encoding="utf-8"?>
<!-- Generator: Adobe Illustrator 18.1.0, SVG Export Plug-In . SVG Version: 6.00 Build 0)  -->
<svg version="1.1" id="Layer_1" xmlns="http://www.w3.org/2000/svg" xmlns:xlink="http://www.w3.org/1999/xlink" x="0px" y="0px"
	 viewBox="0 0 698.9 200" enable-background="new 0 0 698.9 200" xml:space="preserve">
<g>
	<path fill="#231F20" d="M258.5,171.8C258.5,171.8,258.6,172,258.5,171.8l-7.1-64.4l-24.1-6L190.4,155l0,0c0,0,0,0,0,0
		c-3.1,4.5-2,10.6,2.5,13.7c4.5,3.1,10.6,2,13.7-2.5c0,0,0,0,0,0l0,0l3.6-5.5l28.1,7l0.6,6.4l0,0l0,0c0.6,5.4,5.5,9.3,10.9,8.8
		C255.3,182.3,259.3,177.3,258.5,171.8z M219,147l15.3-22.6l2.8,27.2L219,147z"/>
	<path fill="#231F20" d="M63.1,13.7c16.8,14.1,18.8,37.2,4.7,54c-14,16.7-37.1,18.7-53.9,4.6c-16.7-14-18.7-37.1-4.7-53.7
		C23.4,1.7,46.5-0.3,63.1,13.7z M26.7,57.2c8,6.7,18.8,5.1,25.4-2.8c6.7-8,6.4-18.9-1.6-25.6c-7.9-6.7-18.8-5.2-25.5,2.8
		C18.4,39.6,18.7,50.6,26.7,57.2z"/>
	<path fill="#231F20" d="M379.9,173.8c-2.1,0.8-5.2,1.2-7.3,1.2c-6.1,0-12.1-5.2-18.5-10.7c10.6-2.7,18.1-10.8,18.1-22
		c0-16.6-13.4-24.7-27.6-24.7h-37.7v63.8l0,0l0,0c0,5.8,4.7,10.5,10.5,10.5c5.8,0,10.5-4.7,10.5-10.5l0,0v-16.2h1
		c10.2,6.7,22.8,27.7,40.3,27.7c5,0,9.6-1.3,12.7-2.8L379.9,173.8z M342.5,151h-14.6v-15.2h14.6c5.1,0,8.1,3.4,8.1,7.6
		C350.6,147.6,347.7,151,342.5,151z"/>
	<path fill="#231F20" d="M568.3,60.8c-5.2,2.5-7.4,8.8-4.8,14l0,0l0,0l13.2,27c4.2,8.6,2.3,16.2-6.1,20.4c-8.3,4.1-15.3,1-19.6-7.7
		l-13.2-27.1l0,0l0,0c-2.5-5.2-8.8-7.4-14-4.8s-7.4,8.8-4.8,14l13.8,28.4c8.5,17.4,25.9,24.4,46.2,14.5c20.4-10,25.1-29.4,17.2-45.5
		l-13.8-28.4C579.8,60.4,573.5,58.2,568.3,60.8z"/>
	<path fill="#231F20" d="M684.1,45.6L684.1,45.6l-24.3,19.7l-6.8-8.4l18.5-15l0,0h0c3.7-3,4.2-8.4,1.3-12.1c-3-3.7-8.4-4.2-12.1-1.3
		l0,0l0,0l-18.5,15l-6.2-7.6l24.3-19.7l0-0.1l0,0c3.9-3.2,4.5-8.9,1.3-12.8c-3.2-3.9-8.9-4.5-12.8-1.3h0l0,0l-40,32.4l46.7,57.7
		l39.9-32.3l0,0l0,0c3.9-3.2,4.5-8.9,1.3-12.8C693.7,43,688,42.4,684.1,45.6z"/>
	<path fill="#231F20" d="M498.2,197.9c-2.8,1-8,2.1-13.7,2.1c-16.9,0-26.8-15-32.3-18.6c-21.5-0.2-37.6-16.5-37.6-38.1
		c0-22,16.4-38.3,38.1-38.3c22,0,38.3,16.4,38.3,38.3c0,14.4-7.3,26.4-18.5,32.9c3.9,3.4,8.1,6.3,13.4,6.3c3.6,0,8-0.4,10-1.2
		L498.2,197.9z M452.8,161.8c10.5,0,17.7-8.2,17.7-18.5c0-10.5-7.2-18.6-17.7-18.6c-10.4,0-17.6,8.1-17.6,18.6
		C435.2,153.6,442.4,161.8,452.8,161.8z"/>
	<path fill="#231F20" d="M155.6,74.5l-34.1-17.4l-29,56.8l0,0l0,0c-2.6,5.2-0.6,11.5,4.6,14.1c5.2,2.6,11.5,0.6,14.1-4.6l0,0l0,0
		l3.9-7.6l15.4,7.8c13.3,6.8,29.2,3.5,37.1-11.9C176.2,94.9,168.9,81.3,155.6,74.5z M135.7,106l-12.4-6.3l8.6-16.9l12.4,6.3
		c4.8,2.4,6.6,7.7,4,12.8C145.8,106.9,140.4,108.4,135.7,106z"/>
</g>
</svg>
