<?xml version="1.0" encoding="utf-8"?>
<!-- Generator: Adobe Illustrator 18.1.0, SVG Export Plug-In . SVG Version: 6.00 Build 0)  -->
<svg version="1.1" id="Layer_1" xmlns="http://www.w3.org/2000/svg" xmlns:xlink="http://www.w3.org/1999/xlink" x="0px" y="0px"
	 viewBox="0 128.6 850.7 255.7" enable-background="new 0 128.6 850.7 255.7" xml:space="preserve">
<g>
	<path fill="#4E4D50" d="M326.2,250.6C326.2,250.6,326.3,250.9,326.2,250.6l-28.1-75.7h-30.9l-28.5,76l0,0l0,0
		c-2.4,6.3,0.8,13.4,7.2,15.8c6.3,2.4,13.4-0.8,15.8-7.2l0,0l0,0l2.7-7.7h36.1l2.7,7.6l0,0l0,0c2.4,6.4,9.4,9.7,15.8,7.3
		C325.4,264.3,328.8,257.1,326.2,250.6z M270.9,232.6l11.7-32l11.6,32H270.9z"/>
	<path fill="#4E4D50" d="M47.5,173.5c27.4,0,47.8,20.4,47.8,47.8c0,27.1-20.4,47.5-47.8,47.5C20.4,268.8,0,248.4,0,221.3
		C0,193.9,20.4,173.5,47.5,173.5z M47.6,244.3c13.1,0,22.1-10.2,22.1-23c0-13.1-9-23.1-22.1-23.1c-12.9,0-22.1,10.1-22.1,23.1
		C25.6,234.1,34.7,244.3,47.6,244.3z"/>
	<path fill="#4E4D50" d="M187,128.6h-47.7v79.5l0,0l0,0c0,7.2,5.9,13.1,13.1,13.1c7.2,0,13.1-5.8,13.1-13.1l0,0l0,0v-10.6H187
		c18.6,0,34.4-12.7,34.4-34.2C221.4,139.6,205.6,128.6,187,128.6z M182.7,174.9h-17.3v-23.7h17.3c6.7,0,11.7,4.8,11.7,12
		C194.4,170.1,189.4,174.9,182.7,174.9z"/>
	<path fill="#4E4D50" d="M462.1,290.4c-2.6,1-6.5,1.5-9.1,1.5c-7.6,0-15.1-6.5-23-13.3c13.2-3.4,22.6-13.5,22.6-27.4
		c0-20.7-16.7-30.8-34.4-30.8h-47v79.5l0,0l0,0c0,7.2,5.8,13.1,13.1,13.1c7.2,0,13.1-5.8,13.1-13.1l0,0v-20.1h1.2
		c12.7,8.3,28.5,34.6,50.2,34.6c6.3,0,12-1.6,15.8-3.5L462.1,290.4z M415.5,262h-18.2v-18.9h18.2c6.4,0,10.1,4.2,10.1,9.5
		C425.6,257.8,421.9,262,415.5,262z"/>
	<path fill="#4E4D50" d="M718.3,225.3c-7.2,0-13.1,5.8-13.1,13.1l0,0l0,0v37.4c0,12-6.3,19.5-18,19.5c-11.6,0-17.7-7.2-17.7-19.3
		v-37.6l0,0l0,0c0-7.2-5.9-13.1-13.1-13.1c-7.2,0-13.1,5.8-13.1,13.1v39.3c0,24.1,15.7,41.5,43.8,41.5c28.3,0,44.1-19.2,44.1-41.5
		v-39.3C731.2,231.2,725.4,225.3,718.3,225.3z"/>
	<path fill="#4E4D50" d="M839.4,249.5L839.4,249.5h-39V236h29.7l0,0l0,0c5.9,0,10.7-4.8,10.7-10.7s-4.8-10.7-10.7-10.7l0,0l0,0
		h-29.7v-12.1h39v-0.1l0,0c6.3,0,11.3-5.1,11.3-11.3c0-6.3-5.1-11.3-11.3-11.3l0,0l0,0h-64.1v92.5h64l0,0l0,0
		c6.3,0,11.4-5.1,11.4-11.4C850.7,254.6,845.7,249.5,839.4,249.5z"/>
	<path fill="#4E4D50" d="M612.7,381.8c-3.5,1.2-9.9,2.6-17,2.6c-21.1,0-33.4-18.6-40.3-23.1c-26.8-0.3-46.8-20.6-46.8-47.5
		c0-27.4,20.4-47.8,47.5-47.8c27.4,0,47.8,20.4,47.8,47.8c0,18-9.1,32.9-23,41c4.9,4.2,10.1,7.9,16.7,7.9c4.5,0,9.9-0.6,12.5-1.5
		L612.7,381.8z M556.1,336.8c13.1,0,22.1-10.2,22.1-23c0-13.1-9-23.1-22.1-23.1c-12.9,0-21.9,10.1-21.9,23.1
		C534.2,326.6,543.2,336.8,556.1,336.8z"/>
</g>
</svg>
