<?xml version="1.0" encoding="utf-8"?>
<!-- Generator: Adobe Illustrator 18.1.0, SVG Export Plug-In . SVG Version: 6.00 Build 0)  -->
<svg version="1.1" id="Layer_1" xmlns="http://www.w3.org/2000/svg" xmlns:xlink="http://www.w3.org/1999/xlink" x="0px" y="0px"
	 viewBox="0 0 960.6 302.9" enable-background="new 0 0 960.6 302.9" xml:space="preserve">
<g>
	<path fill="#4E4D50" d="M326.4,122C326.4,122,326.5,122.3,326.4,122l-28.1-75.7h-30.9l-28.5,76l0,0c0,0,0,0,0,0
		c-2.4,6.3,0.8,13.4,7.2,15.8c6.3,2.4,13.4-0.8,15.8-7.2c0,0,0,0,0,0h0l2.7-7.7h36.1l2.7,7.6h0l0,0c2.4,6.4,9.4,9.7,15.8,7.3
		C325.6,135.7,329,128.5,326.4,122z M271.1,104l11.7-32l11.6,32H271.1z"/>
	<path fill="#4E4D50" d="M47.5,44.9c27.4,0,47.8,20.4,47.8,47.8c0,27.1-20.4,47.5-47.8,47.5C20.4,140.2,0,119.8,0,92.7
		C0,65.3,20.4,44.9,47.5,44.9z M47.6,115.7c13.1,0,22.1-10.2,22.1-23c0-13.1-9-23.1-22.1-23.1c-12.9,0-22.1,10.1-22.1,23.1
		C25.6,105.5,34.7,115.7,47.6,115.7z"/>
	<path fill="#4E4D50" d="M187.1,0h-47.7v79.5l0,0l0,0c0,7.2,5.9,13.1,13.1,13.1c7.2,0,13.1-5.8,13.1-13.1l0,0l0,0V68.9h21.5
		c18.6,0,34.4-12.7,34.4-34.2C221.5,11,205.7,0,187.1,0z M182.8,46.3h-17.3V22.6h17.3c6.7,0,11.7,4.8,11.7,12
		C194.5,41.5,189.5,46.3,182.8,46.3z"/>
	<path fill="#4E4D50" d="M462.4,161.9c-2.6,1-6.5,1.5-9.1,1.5c-7.6,0-15.1-6.5-23-13.3c13.2-3.4,22.6-13.5,22.6-27.4
		c0-20.7-16.7-30.8-34.4-30.8h-47v79.5l0,0l0,0c0,7.2,5.8,13.1,13.1,13.1c7.2,0,13.1-5.8,13.1-13.1l0,0v-20.1h1.2
		c12.7,8.3,28.5,34.6,50.2,34.6c6.3,0,12-1.6,15.8-3.5L462.4,161.9z M415.8,133.4h-18.2v-18.9h18.2c6.4,0,10.1,4.2,10.1,9.5
		C425.9,129.2,422.2,133.4,415.8,133.4z"/>
	<path fill="#4E4D50" d="M718.7,96.7c-7.2,0-13.1,5.8-13.1,13.1l0,0l0,0v37.4c0,12-6.3,19.5-18,19.5c-11.6,0-17.7-7.2-17.7-19.3
		v-37.6l0,0l0,0c0-7.2-5.9-13.1-13.1-13.1c-7.2,0-13.1,5.8-13.1,13.1v39.3c0,24.1,15.7,41.5,43.8,41.5c28.3,0,44.1-19.2,44.1-41.5
		v-39.3C731.7,102.6,725.9,96.7,718.7,96.7z"/>
	<path fill="#4E4D50" d="M839.9,120.9L839.9,120.9h-39v-13.5h29.7l0,0h0c5.9,0,10.7-4.8,10.7-10.7c0-5.9-4.8-10.7-10.7-10.7h0l0,0
		h-29.7V73.9h39v-0.1l0,0c6.3,0,11.3-5.1,11.3-11.3c0-6.3-5.1-11.3-11.3-11.3h0l0,0h-64.1v92.6h64l0,0h0c6.3,0,11.4-5.1,11.4-11.4
		C851.2,126,846.2,120.9,839.9,120.9z"/>
	<path fill="#4E4D50" d="M613.1,253.3c-3.5,1.2-9.9,2.6-17,2.6c-21.1,0-33.4-18.6-40.3-23.1c-26.8-0.3-46.8-20.6-46.8-47.5
		c0-27.4,20.4-47.8,47.5-47.8c27.4,0,47.8,20.4,47.8,47.8c0,18-9.1,32.9-23,41c4.9,4.2,10.1,7.9,16.7,7.9c4.5,0,9.9-0.6,12.5-1.5
		L613.1,253.3z M556.4,208.3c13.1,0,22.1-10.2,22.1-23c0-13.1-9-23.1-22.1-23.1c-12.9,0-21.9,10.1-21.9,23.1
		C534.5,198.1,543.5,208.3,556.4,208.3z"/>
	<g>
		<path fill="#4E4D50" d="M668.5,241.9V253c-2.2,1.8-6.6,3.3-10.2,3.3c-7,0-12.6-4.5-12.6-12.2c0-7.7,5.6-12.3,12.6-12.3
			c3.8,0,6.9,1.3,9.3,3.2l-2.7,4.4c-1.8-1.4-3.9-2.2-6.5-2.2c-3.8,0-6.7,2.5-6.7,6.8c0,4.3,2.9,6.8,6.9,6.8c1.5,0,3.1-0.4,4.3-1
			v-3.5h-5.7v-4.5H668.5z"/>
		<path fill="#4E4D50" d="M673.7,232.2H685c4.6,0,9.1,2.3,9.1,7.8c0,3.7-2.6,6.4-6.2,7.2c2.1,1.9,4.2,4,6.4,4c0.8,0,1.8-0.1,2.5-0.5
			l0.6,4.6c-1,0.5-2.4,0.9-4,0.9c-5.4,0-9.4-6.8-12.5-8.9h-1.3v8.6h-5.9V232.2z M679.6,237.3v5.9h5.3c1.9,0,3.1-1.2,3.1-2.9
			c0-1.8-1.2-2.9-3.1-2.9H679.6z"/>
		<path fill="#4E4D50" d="M706.2,245.4c0,3.4,1.7,5.5,5.1,5.5c3.5,0,5.2-2.2,5.2-5.5v-13.2h5.9v13.5c0,5.7-3.9,10.6-11.1,10.6
			c-7.1,0-11-4.4-11-10.6v-13.5h5.9V245.4z"/>
		<path fill="#4E4D50" d="M728.4,232.2h11.8c4.7,0,8.8,2.8,8.8,8.8c0,5.4-4,8.7-8.8,8.7h-5.9v6.3h-5.9V232.2z M734.3,237.3v7.3h5
			c2.1,0,3.6-1.4,3.6-3.6c0-2.3-1.6-3.7-3.6-3.7H734.3z"/>
		<path fill="#4E4D50" d="M764,231.8c7,0,12.2,5.2,12.2,12.3c0,6.9-5.2,12.2-12.2,12.2c-6.9,0-12.2-5.2-12.2-12.2
			C751.8,237.1,757,231.8,764,231.8z M764,250.8c3.8,0,6.5-2.9,6.5-6.7c0-3.8-2.6-6.7-6.5-6.7c-3.7,0-6.5,2.9-6.5,6.7
			C757.6,247.9,760.3,250.8,764,250.8z"/>
		<path fill="#4E4D50" d="M810.1,252.4c-2.1,2-5.8,3.8-9.7,3.8c-7,0-12.3-4.5-12.3-12.2c0-7.7,5.3-12.3,12.3-12.3
			c6.1,0,9.6,3.4,9.7,9l-5.4,1.1c0-2.9-1.4-4.7-4.4-4.7c-3.6,0-6.1,2.5-6.1,6.8c0,4.3,2.5,6.8,6.4,6.8c2.8,0,5.2-1.3,6.9-2.8
			L810.1,252.4z"/>
		<path fill="#4E4D50" d="M814.7,232.2H826c4.6,0,9.1,2.3,9.1,7.8c0,3.7-2.6,6.4-6.2,7.2c2.1,1.9,4.2,4,6.4,4c0.8,0,1.8-0.1,2.5-0.5
			l0.6,4.6c-1,0.5-2.4,0.9-4,0.9c-5.4,0-9.4-6.8-12.5-8.9h-1.3v8.6h-5.9V232.2z M820.6,237.3v5.9h5.3c1.9,0,3.1-1.2,3.1-2.9
			c0-1.8-1.2-2.9-3.1-2.9H820.6z"/>
		<path fill="#4E4D50" d="M841.7,232.2h5.9v23.7h-5.9V232.2z"/>
		<path fill="#4E4D50" d="M860,232.2h6.9l9,23.7h-5.9l-1.6-4.4h-9.9l-1.6,4.4h-5.9L860,232.2z M859.8,247.3h7l-3.4-9.3L859.8,247.3z
			"/>
		<path fill="#4E4D50" d="M888.9,238.1v17.9H883v-17.9h-7.3v-5.9h20.2v5.9H888.9z"/>
		<path fill="#4E4D50" d="M900,232.2h5.9v23.7H900V232.2z"/>
		<path fill="#4E4D50" d="M909.2,232.2h6.4l6.2,18.1l6.4-18.1h6.5l-9.1,23.7h-7.4L909.2,232.2z"/>
		<path fill="#4E4D50" d="M948.3,231.8c7,0,12.2,5.2,12.2,12.3c0,6.9-5.2,12.2-12.2,12.2c-6.9,0-12.2-5.2-12.2-12.2
			C936.2,237.1,941.4,231.8,948.3,231.8z M948.4,250.8c3.8,0,6.5-2.9,6.5-6.7c0-3.8-2.6-6.7-6.5-6.7c-3.7,0-6.5,2.9-6.5,6.7
			C941.9,247.9,944.6,250.8,948.4,250.8z"/>
	</g>
	<rect x="643.8" y="279.4" fill="#4E4D50" width="316.5" height="23.5"/>
</g>
</svg>
