<?xml version="1.0" encoding="utf-8"?>
<!-- Generator: Adobe Illustrator 18.1.0, SVG Export Plug-In . SVG Version: 6.00 Build 0)  -->
<svg version="1.1" id="Layer_1" xmlns="http://www.w3.org/2000/svg" xmlns:xlink="http://www.w3.org/1999/xlink" x="0px" y="0px"
	 viewBox="0 0 187.6 200" enable-background="new 0 0 187.6 200" xml:space="preserve">
<g>
	<path fill="#231F20" d="M174.1,57.7C174.1,57.7,174.2,57.8,174.1,57.7l-10.9-29.5h-12.1L140,57.8l0,0c0,0,0,0,0,0
		c-0.9,2.5,0.3,5.2,2.8,6.2c2.5,0.9,5.2-0.3,6.2-2.8c0,0,0,0,0,0l0,0l1-3h14.1l1.1,3l0,0l0,0c0.9,2.5,3.7,3.8,6.2,2.8
		C173.8,63,175.1,60.2,174.1,57.7z M152.5,50.7l4.6-12.5l4.5,12.5H152.5z"/>
	<path fill="#231F20" d="M25,27.1c10.7,0,18.6,8,18.6,18.6c0,10.6-8,18.5-18.6,18.5c-10.6,0-18.5-8-18.5-18.5
		C6.4,35,14.4,27.1,25,27.1z M25,54.7c5.1,0,8.6-4,8.6-9c0-5.1-3.5-9-8.6-9c-5,0-8.6,3.9-8.6,9C16.4,50.7,20,54.7,25,54.7z"/>
	<path fill="#231F20" d="M144.8,199c-1.4,0.5-3.9,1-6.6,1c-8.2,0-13-7.3-15.7-9c-10.5-0.1-18.3-8-18.3-18.5c0-10.7,8-18.6,18.5-18.6
		c10.7,0,18.6,8,18.6,18.6c0,7-3.6,12.8-9,16c1.9,1.6,3.9,3.1,6.5,3.1c1.8,0,3.9-0.2,4.9-0.6L144.8,199z M122.7,181.4
		c5.1,0,8.6-4,8.6-9c0-5.1-3.5-9-8.6-9c-5,0-8.5,3.9-8.5,9C114.2,177.4,117.7,181.4,122.7,181.4z"/>
	<path fill="#231F20" d="M95.9,0H77.3v31l0,0l0,0c0,2.8,2.3,5.1,5.1,5.1c2.8,0,5.1-2.3,5.1-5.1l0,0l0,0v-4.1h8.4
		c7.3,0,13.4-4.9,13.4-13.3C109.3,4.3,103.2,0,95.9,0z M94.2,18.1h-6.7V8.8h6.7c2.6,0,4.6,1.9,4.6,4.7
		C98.8,16.2,96.8,18.1,94.2,18.1z"/>
	<path fill="#231F20" d="M186.7,123.2c-1,0.4-2.5,0.6-3.6,0.6c-3,0-5.9-2.5-9-5.2c5.2-1.3,8.8-5.3,8.8-10.7c0-8.1-6.5-12-13.4-12
		h-18.3v31l0,0l0,0c0,2.8,2.3,5.1,5.1,5.1c2.8,0,5.1-2.3,5.1-5.1l0,0V119h0.5c4.9,3.2,11.1,13.5,19.6,13.5c2.4,0,4.7-0.6,6.2-1.4
		L186.7,123.2z M168.5,112.1h-7.1v-7.4h7.1c2.5,0,3.9,1.6,3.9,3.7C172.4,110.4,171,112.1,168.5,112.1z"/>
	<path fill="#231F20" d="M66.2,153.8c-2.8,0-5.1,2.3-5.1,5.1l0,0l0,0v14.6c0,4.7-2.4,7.6-7,7.6c-4.5,0-6.9-2.8-6.9-7.5v-14.7l0,0v0
		c0-2.8-2.3-5.1-5.1-5.1c-2.8,0-5.1,2.3-5.1,5.1v15.3c0,9.4,6.1,16.2,17.1,16.2c11,0,17.2-7.5,17.2-16.2v-15.3
		C71.3,156.1,69,153.8,66.2,153.8z"/>
	<path fill="#231F20" d="M25,123.6L25,123.6H9.8v-5.3h11.6l0,0c0,0,0,0,0,0c2.3,0,4.2-1.9,4.2-4.2c0-2.3-1.9-4.2-4.2-4.2
		c0,0,0,0,0,0l0,0H9.8v-4.8H25v0l0,0c2.4,0,4.4-2,4.4-4.4c0-2.4-2-4.4-4.4-4.4c0,0,0,0,0,0l0,0H0v36.1h25l0,0c0,0,0,0,0,0
		c2.4,0,4.4-2,4.4-4.4C29.4,125.6,27.4,123.6,25,123.6z"/>
</g>
</svg>
