<?xml version="1.0" encoding="utf-8"?>
<!-- Generator: Adobe Illustrator 18.1.0, SVG Export Plug-In . SVG Version: 6.00 Build 0)  -->
<svg version="1.1" id="Layer_1" xmlns="http://www.w3.org/2000/svg" xmlns:xlink="http://www.w3.org/1999/xlink" x="0px" y="0px"
	 viewBox="0 264.3 960 288.7" enable-background="new 0 264.3 960 288.7" xml:space="preserve">
<g>
	<path d="M368.1,402C368.1,402,368.2,402.3,368.1,402l-31.7-85.4h-34.9l-32.2,85.8l0,0l0,0c-2.7,7.1,0.9,15.1,8.1,17.8
		c7.1,2.7,15.1-0.9,17.8-8.1l0,0l0,0l3-8.7h40.7l3,8.6l0,0l0,0c2.7,7.2,10.6,10.9,17.8,8.2S371,409.3,368.1,402z M305.7,381.7
		l13.2-36.1l13.1,36.1H305.7z"/>
	<path d="M53.6,315c30.9,0,53.9,23,53.9,53.9c0,30.6-23,53.6-53.9,53.6C23,422.5,0,399.5,0,368.9C0,338,23,315,53.6,315z
		 M53.7,394.9c14.8,0,24.9-11.5,24.9-26c0-14.8-10.2-26.1-24.9-26.1c-14.6,0-24.9,11.4-24.9,26.1C28.9,383.4,39.2,394.9,53.7,394.9z
		"/>
	<path d="M211,264.3h-53.8V354l0,0l0,0c0,8.1,6.7,14.8,14.8,14.8c8.1,0,14.8-6.5,14.8-14.8l0,0l0,0v-12H211
		c21,0,38.8-14.3,38.8-38.6C249.8,276.7,232,264.3,211,264.3z M206.2,316.6h-19.5v-26.7h19.5c7.6,0,13.2,5.4,13.2,13.5
		C219.4,311.2,213.7,316.6,206.2,316.6z"/>
	<path d="M521.5,446.9c-2.9,1.1-7.3,1.7-10.3,1.7c-8.6,0-17-7.3-26-15c14.9-3.8,25.5-15.2,25.5-30.9c0-23.4-18.8-34.8-38.8-34.8h-53
		v89.7l0,0l0,0c0,8.1,6.5,14.8,14.8,14.8c8.1,0,14.8-6.5,14.8-14.8l0,0V435h1.4c14.3,9.4,32.2,39,56.6,39c7.1,0,13.5-1.8,17.8-3.9
		L521.5,446.9z M468.9,414.9h-20.5v-21.3h20.5c7.2,0,11.4,4.7,11.4,10.7C480.3,410.1,476.1,414.9,468.9,414.9z"/>
	<path d="M810.6,373.4c-8.1,0-14.8,6.5-14.8,14.8l0,0l0,0v42.2c0,13.5-7.1,22-20.3,22c-13.1,0-20-8.1-20-21.8v-42.4l0,0l0,0
		c0-8.1-6.7-14.8-14.8-14.8c-8.1,0-14.8,6.5-14.8,14.8v44.3c0,27.2,17.7,46.8,49.4,46.8c31.9,0,49.8-21.7,49.8-46.8v-44.3
		C825.1,380.1,818.6,373.4,810.6,373.4z"/>
	<path d="M947.2,400.8L947.2,400.8h-44v-15.2h33.5l0,0l0,0c6.7,0,12.1-5.4,12.1-12.1c0-6.7-5.4-12.1-12.1-12.1l0,0l0,0h-33.5v-13.7
		h44v-0.1l0,0c7.1,0,12.8-5.8,12.8-12.8c0-7.1-5.8-12.8-12.8-12.8l0,0l0,0h-72.3v104.4h72.2l0,0l0,0c7.1,0,12.9-5.8,12.9-12.9
		C960,406.5,954.4,400.8,947.2,400.8z"/>
	<path d="M691.4,550.1c-3.9,1.4-11.2,2.9-19.2,2.9c-23.8,0-37.7-21-45.5-26.1c-30.2-0.3-52.8-23.2-52.8-53.6
		c0-30.9,23-53.9,53.6-53.9c30.9,0,53.9,23,53.9,53.9c0,20.3-10.3,37.1-26,46.3c5.5,4.7,11.4,8.9,18.8,8.9c5.1,0,11.2-0.7,14.1-1.7
		L691.4,550.1z M627.5,499.3c14.8,0,24.9-11.5,24.9-26c0-14.8-10.2-26.1-24.9-26.1c-14.6,0-24.7,11.4-24.7,26.1
		C602.8,487.8,613,499.3,627.5,499.3z"/>
</g>
</svg>
