<?xml version="1.0" encoding="utf-8"?>
<!-- Generator: Adobe Illustrator 18.1.0, SVG Export Plug-In . SVG Version: 6.00 Build 0)  -->
<svg version="1.1" id="Layer_1" xmlns="http://www.w3.org/2000/svg" xmlns:xlink="http://www.w3.org/1999/xlink" x="0px" y="0px"
	 viewBox="0 0 100 76" enable-background="new 0 0 100 76" xml:space="preserve">
<g>
	<path d="M88.1,0H11.9C5.3,0,0,5.1,0,11.4v53.2C0,70.8,5.3,76,11.9,76h76.3c6.5,0,11.9-5.1,11.9-11.4V11.4C100,5.1,94.7,0,88.1,0
		L88.1,0z M88.1,65.9H11.9c-1,0-1.8-0.6-1.8-1.3V18.4l34.5,29.1c0.7,0.6,1.6,0.9,2.5,0.9l5.8,0c0.9,0,1.8-0.3,2.5-0.9l34.5-29.1
		v46.1C89.9,65.3,89.1,65.9,88.1,65.9L88.1,65.9z M50,38.5L16.5,10.1h67.1L50,38.5z M50,38.5"/>
</g>
</svg>
