<?xml version="1.0" encoding="utf-8"?>
<!-- Generator: Adobe Illustrator 18.1.0, SVG Export Plug-In . SVG Version: 6.00 Build 0)  -->
<svg version="1.1" id="Layer_1" xmlns="http://www.w3.org/2000/svg" xmlns:xlink="http://www.w3.org/1999/xlink" x="0px" y="0px"
	 viewBox="0 0 50 50" enable-background="new 0 0 50 50" xml:space="preserve">
<g>
	<path d="M45.2,2.4H4.8C2.2,2.4,0,4.6,0,7.3s2.2,4.8,4.8,4.8h40.3c2.7,0,4.8-2.2,4.8-4.8S47.8,2.4,45.2,2.4z"/>
	<path d="M45.2,20.2H4.8C2.2,20.2,0,22.3,0,25s2.2,4.8,4.8,4.8h40.3c2.7,0,4.8-2.2,4.8-4.8S47.8,20.2,45.2,20.2z"/>
	<path d="M45.2,37.9H4.8c-2.7,0-4.8,2.2-4.8,4.8s2.2,4.8,4.8,4.8h40.3c2.7,0,4.8-2.2,4.8-4.8S47.8,37.9,45.2,37.9z"/>
</g>
</svg>
