<?xml version="1.0" encoding="utf-8"?>
<!-- Generator: Adobe Illustrator 18.1.0, SVG Export Plug-In . SVG Version: 6.00 Build 0)  -->
<svg version="1.1" id="Layer_1" xmlns="http://www.w3.org/2000/svg" xmlns:xlink="http://www.w3.org/1999/xlink" x="0px" y="0px"
	 viewBox="0 0 420 54.7" enable-background="new 0 0 420 54.7" xml:space="preserve">
<g>
	<path fill="#EE4028" d="M232.4,24.7c-0.1,1.2,0.1,2,0,2.9c-0.2,1.2-0.6,2.3-0.9,3.4c-0.4,1.4-0.6,2.9-1.2,4.3
		c-0.9,2-2.2,3.5-3.8,4.8c-1.9,1.6-3.8,3-6.2,3.7c-4.3,1.4-8.6,1.9-13,0.3c-2.3-0.9-4.1-2.5-5.7-4.3c-0.7-0.8-1.3-1.6-1.9-2.4
		c-2.3-3.2-3.3-6.8-3.4-10.7c-0.2-6.3,1.9-11.8,6.2-16.4c2.3-2.4,4.9-4.5,7.7-6.3c1.2-0.8,2.5-0.8,3.8-0.7c1.8,0.2,3.6,0.6,5.4,1
		c1,0.2,1.5,0.9,1.7,1.8c0.1,0.8,0.5,1.2,1.2,1.6c1.8,1,3.3,2.3,4.7,3.9c0.2,0.2,0.3,0.4,0.5,0.6c1.2,0.7,1.9,1.9,2.9,2.8
		c0.1,0.1,0.3,0.3,0.2,0.4c-0.3,1,0.7,1.5,0.8,2.4c0.1,0.8,0.2,1.6,0.3,2.5C232.3,21.9,232.4,23.4,232.4,24.7z M214.9,39.1
		c1.1-0.1,3.1-0.3,5-1.3c4.1-2.2,6.4-5.7,7.5-10.1c0.3-1.1,0.4-2.3-0.2-3.4c-0.1-0.1-0.1-0.2-0.1-0.3c0.4-0.6,0-1.2-0.3-1.7
		c-1.3-2.5-2.9-4.8-5-6.7c-2.2-2-4.6-3.7-6.3-6.1c-0.3-0.4-0.6-0.5-1.1-0.3c-1,0.4-2,0.8-2.7,1.5c-0.8,0.8-1.6,1.5-2.4,2.2
		c-0.6,0.6-1.2,1.1-1.7,1.8c-1.7,2.6-3.1,5.4-3.3,8.6c-0.1,1.4-0.5,2.7-0.4,4c0.2,3.5,1.3,6.6,3.7,9.1
		C209.4,38.2,211.4,39.2,214.9,39.1z"/>
	<path fill="#EE4028" d="M260.5,24c0.3-4.3-0.1-8.5-0.6-12.7c-0.2-1.3-0.2-2.6-0.3-3.8c-0.1-1.3,0.8-3.1,1.8-3.6
		c0.2-0.1,0.5-0.2,0.8-0.1c1.5,0.4,3,0.6,4.3,1.5c1.5,0.9,2.5,2.1,2.9,3.9c0.4,1.7,0.8,3.3,1.1,5c0.5,2.8,0.2,5.6-0.4,8.4
		c-0.5,1.8-0.5,3.7-0.8,5.6c-0.3,2.4-0.9,4.6-2.2,6.7c-0.6,1-1.1,2-1.4,3.1c-0.3,1-1,1.8-1.5,2.6c-0.8,1.2-1.3,2.6-2.2,3.8
		c-1.1,1.4-2.2,2.7-3.8,3.5c-0.6,0.3-1.3,0.7-1.9,1c-2.3,1.1-4.8,1-7.2,0.7c-0.9-0.1-1.9-0.2-2.8-0.3c-1.3-0.1-1.9-0.8-2.4-1.8
		c-0.8-1.5-1.3-3.1-1.8-4.8c-1-3.3-1.2-6.7-0.9-10.1c0-0.5,0.2-1-0.2-1.5c-0.1-0.1-0.1-0.3,0-0.4c0.7-1.3,0.5-2.7,0.9-4.1
		c0.6-1.7,1.8-2.8,3.2-3.8c0.2-0.1,0.4-0.2,0.4,0.1c0.2,0.7,0.7,0.6,1.2,0.5c0.6-0.1,1.2-0.1,1.8-0.1c0.3,0,0.6,0.1,0.5,0.5
		c-0.1,0.3,0.1,0.6,0.2,0.9c0,0.4,0.1,0.8-0.2,1.2c-0.3,0.3-0.4,0.5-0.1,0.9c0.2,0.1,0.1,0.3,0,0.5c-1.7,2.6-1.9,5.6-1.8,8.6
		c0,1.7,0.5,3.3,1.1,4.9c0.4,1,1.3,1.5,2.1,2.1c0.3,0.2,0.7,0.2,1,0c0.8-0.4,1.6-0.6,2.5-0.7c1-0.2,1.9-0.7,2.7-1.3
		c0.4-0.3,0.9-0.6,0.8-1.3c0-0.1,0-0.2,0.1-0.3c2.1-3,2.7-4.8,2.9-8.9C260.4,28.1,260.5,26.1,260.5,24z"/>
	<path fill="#EE4028" d="M389.3,43.5c0.5-2.9,2.8-4.2,5.1-4.4c1.2-0.1,2.3,0.1,3.5,0.3c3,0.3,5.9,0.8,8.9,1.1
		c0.9,0.1,1.7,0.1,2.6-0.3c1.6-0.6,2.9-1.5,4-2.9c1-1.3,1-2.7,0.4-4.2c-0.5-1.3-1.4-2.3-2.6-3.1c-2.8-1.9-5.8-2.9-9.2-2.9
		c-1,0-2-0.1-3-0.3c-1-0.1-2-0.4-3-0.3c-0.7,0.1-1.1-0.4-1.7-0.5c-2.6-0.4-4.8-1.6-7.1-2.8c-1.6-0.8-2.3-2.5-2.2-4.3
		c0.2-2.6,1.4-4.8,3.3-6.5c4.5-4.2,9.8-6.7,16.1-6.7c1.1,0,2.3,0.1,3.4,0.1c0.6,0,1,0.2,1.4,0.6c1.1,1.3,2.2,2.6,3.1,4
		c0.8,1.2,0,3-1.4,3.3c-0.4,0.1-0.8,0.1-1.2,0.2c-0.3,0.1-0.6,0-0.8-0.2c-0.5-0.5-1.1-0.7-1.7-0.7c-0.1,0-0.2,0-0.3-0.1
		c-1.7-0.5-3.3-0.3-5,0.2c-1,0.3-2.1,0.5-3.2,0.6c-1.9,0.3-3.5,1.2-5.2,2.1c-0.1,0-0.1,0.1-0.2,0.1c-0.7,0.8-1.4,1.6-1.9,2.5
		c-0.7,1.2-0.9,1.5,0.8,2.1c2,0.7,4.1,1,6.2,1.2c3,0.2,6,0.4,9,1.2c3.2,0.9,6.2,2.2,8.8,4.3c1.6,1.3,2.9,3,3.6,5
		c0.6,1.8,0.6,3.6,0.1,5.4c-0.3,0.9-0.6,1.7-1.2,2.4c-0.2,0.2-0.4,0.5-0.4,0.9c-0.1,0.7-0.8,1-1.1,1.7c-0.2,0.6-1,0.9-1.7,1.2
		c-0.5,0.2-1,0.5-1.5,0.8c-1.6,1.1-3.4,1.5-5.3,1.6c-0.3,0-0.5,0-0.8,0.1c-1.3,0.7-2.6,0.3-4,0c-1.2-0.2-2.3-0.6-3.5-0.7
		c-1.5-0.1-3-0.6-4.4-0.9c-1.5-0.3-3-1-4.4-1.7c-0.6-0.3-0.9-0.4-1.4-0.1C389.7,43.4,389.6,43.4,389.3,43.5z"/>
	<path fill="#EE4028" d="M130.3,48.3c-1,0.1-2.1-0.2-3.1-0.2c-0.8,0-1.3-0.6-1.4-1.4c-0.5-3.3-0.8-6.6-1.4-9.8c-0.4-2.5-0.5-5-1-7.5
		c-0.3-1.7-0.7-3.4-0.9-5.1c-0.2-1.2-0.4-2.3-0.5-3.5c-0.1-1.2-0.4-2.3-0.9-3.4c-0.2-0.4-0.3-0.8-0.2-1.3c0.1-0.4,0.1-0.8,0-1.2
		c-0.1-0.9,0.1-1.7,0.4-2.5c1-2.4,2.7-4,5.1-5c1.7-0.7,3.3-1.6,5.1-2.1c1.7-0.5,3.5-0.6,5.3-0.4c2.5,0.3,4.9,1,7,2.4
		c1.9,1.2,3.5,2.7,4.3,4.7c1.3,3,1.7,6.2,0,9.3c-0.2,0.4-0.4,0.7-0.7,1c-0.9,1-1.6,2.3-2.6,3.3c-0.3,0.3-0.6,0.5-0.9,0.7
		c-1.2,0.6-2.3,1.4-3.6,1.9c-0.8,0.3-1.6,1-2.5,1.4c-2.1,0.9-4.2,1.8-6.3,2.6c-0.4,0.1-0.5,0.3-0.4,0.7c0.6,1.6,0.9,3.3,0.7,5.1
		c-0.1,1.4-0.1,2.8,0.4,4.1c0.5,1.2,0.3,2.5,0.5,3.7c0.1,0.3,0,0.4-0.2,0.6c-0.2,0.2-0.5,0.4-0.8,0.5
		C130.6,47.2,130.6,47.2,130.3,48.3z M134.2,10.5c-1.1-0.1-2.9,0.8-4.7,1.7c-0.4,0.2-0.5,0.5-0.5,0.8c0.1,1.1-0.3,2.2-0.4,3.3
		c0,0.5-0.1,1-0.1,1.6c0.1,2,0.5,3.9,0.9,5.8c0.1,0.3,0.1,0.6,0.1,0.9c0,0.9,0.1,1,1,0.9c1.5-0.2,3.1-0.3,4.5-0.9
		c2.3-1,4.4-2.5,6.3-4.1c0.9-0.7,1.7-1.6,2.2-2.7c0.5-1.1,0.8-2.3,0-3.4c-0.8-1-1.7-1.8-2.8-2.4C139,11.1,137.1,10.7,134.2,10.5z"/>
	<path fill="#EE4028" d="M330.6,20.4c0,1.6,0.1,3.2,0.1,4.9c0,0.5,0.1,1,0.2,1.6c0.6,2.8,0.6,5.6,0.1,8.4c-0.3,2-0.3,4,0.3,6
		c0.4,1.4,0.5,2.8,0.4,4.3c0,1.2-0.7,2-1.2,2.8c-0.3,0.5-1.4,0.5-2,0c-1.1-0.8-1.8-1.9-2-3.2c-0.9-4.4-1.3-8.8-1.1-13.3
		c0.1-2.3-0.3-4.6-0.4-6.9c-0.1-3.3-0.3-6.6,0-9.8c0.1-1.5,0.1-1.6-1.4-1.6c-2.1,0-4.2,0.1-6.3,0.3c-1.5,0.1-2.7-0.6-3.9-1.2
		c-0.1-0.1-0.3-0.3-0.3-0.4c-0.2-0.9-0.6-1.7-0.9-2.6c-0.5-1.6,0.2-2.6,1.9-2.6c3.2,0.1,6.4-0.1,9.6-0.4c4.7-0.4,9.4-0.5,14.1-0.6
		c2.3-0.1,4.5-0.2,6.8-0.1c0.3,0,0.5,0,0.8,0.1c1.7,0.3,2.4,1.1,1.8,3c-0.4,1.5-1.5,2.3-2.9,3c-1.7,0.8-3.5,0.8-5.3,0.9
		c-1.1,0.1-2.2,0.4-3.2,0.5c-1.1,0.1-2.2,0.1-3.4,0.2c-0.1,0-0.3,0-0.4,0c-1,0.1-1.2,0.2-1.2,1.2c0,1.3,0,2.6,0,3.8
		C330.6,19.5,330.6,20,330.6,20.4C330.6,20.4,330.6,20.4,330.6,20.4z"/>
	<path fill="#EE4028" d="M342,29.1c-0.1-1.8,0.6-3.7,1.2-5.6c1.5-5.1,4.9-8.8,9-11.9c4.3-3.2,9.1-5.2,14.2-6.5
		c1.3-0.3,1.4-0.3,2.2,0.9c0.1,0.2,0.2,0.4,0.4,0.5c0.9,0.7,1.5,1.7,2.2,2.5c0.4,0.4,0.8,0.8,1.3,1.2c1.2,1,2.3,1.9,3.4,3
		c0.5,0.6,1.1,1.1,1.4,1.8c0.1,0.4,0.4,0.6,0.7,0.7c0.4,0.2,0.6,0.4,0.4,0.9c-0.1,0.2,0,0.5,0.3,0.5c0.4-0.1,0.5,0.2,0.6,0.5
		c0.1,0.5,0.4,0.9,0.8,1.3c0.5,0.4,0.7,1,0.9,1.5c0.6,1.8,0.7,3.6,0.4,5.4c0,0.2-0.1,0.3,0,0.5c0.2,0.4,0.1,0.7-0.1,1
		c-0.6,0.8-0.6,1.7-0.7,2.5c0,0.3,0,0.5-0.2,0.7c-0.5,0.8-0.7,1.6-0.8,2.5c-0.1,0.5-0.5,0.9-0.8,1.2c-0.5,0.4-1.1,0.8-0.6,1.6
		c0,0.1,0,0.2-0.1,0.3c-0.7,1-1.1,2.3-2,3.2c-1.3,1.4-2.6,2.8-3.9,4.2c-0.5,0.5-1,1-1.6,1.4c-0.1,0.1-0.2,0.1-0.3,0.2
		c-1.3,1.7-3.2,2.1-5,2.8c-0.7,0.3-1.4,0.5-2.2,0.7c-0.6,0.2-1.1,0.1-1.7,0.1c-1.7-0.2-3.3-0.6-4.9-0.9c-2.5-0.5-4.8-1.5-7.1-2.4
		c-1.8-0.8-3-2.2-4.1-3.8c-1-1.4-1.6-3-2-4.7c-0.4-1.8-0.8-3.7-1.2-5.5C342,30.8,342,30.1,342,29.1z M369.4,27.8c0-0.2,0-0.4,0-0.7
		c0-2.2-0.1-4.3-1.6-6.1c-0.1-0.2-0.2-0.4-0.2-0.6c-0.1-1.6-0.9-2.8-1.7-4.1c-0.4-0.6-0.6-0.6-1.2-0.4c-1,0.3-1.9,0.8-2.7,1.5
		c-0.4,0.4-0.9,0.8-1.4,1c-1.7,0.7-3.1,1.9-4.4,3.2c-1.3,1.4-2.5,2.8-3.2,4.6c-0.4,1-0.5,2.2-0.9,3.2c-0.6,1.5,0.1,3.1-0.4,4.6
		c0,0.1,0,0.2,0.1,0.4c0.1,0.5,0.8,0.8,0.6,1.4c0.8,0.2,0.6,1,0.8,1.5c0.4,0.7,0.7,1.5,1,2.2c0.2,0.6,0.6,0.9,1.1,1.1
		c1.3,0.5,2.6,0.6,3.9,0.3c0.3-0.1,0.6-0.2,0.8-0.1c0.5,0.2,0.9-0.1,1.4-0.3c1.8-0.8,3.2-2.3,4.5-3.7
		C368.1,34.1,369.5,31.2,369.4,27.8z M374.9,16.7c0.4,0,0.7-0.2,0.7-0.6c0-0.3,0-0.5-0.2-0.7c-0.4-0.4-0.8-0.8-1.2-1.2
		c-0.1-0.1-0.2-0.2-0.3-0.1c-0.2,0.1-0.2,0.3-0.1,0.4c0.3,0.6,0.5,1.2,0.7,1.8C374.4,16.5,374.6,16.7,374.9,16.7z M376,18.7
		c0.3,0.2,0.5,0.1,0.7-0.2c0.2-0.3-0.1-0.5-0.3-0.6c-0.2-0.2-0.4-0.4-0.6-0.6c-0.2-0.2-0.4-0.2-0.7-0.1c-0.3,0.1-0.3,0.3-0.2,0.6
		C375.1,18.4,375.2,18.6,376,18.7z"/>
	<path fill="#EE4028" d="M191.7,53.2c-0.8,0.4-1.5,0.5-2-0.3c-0.1-0.2-0.4-0.3-0.6-0.4c-0.3-0.1-0.6,0-0.6,0.4
		c0,0.4,0.1,0.8,0.2,1.2c-0.2,0.2-0.4,0.2-0.6,0.1c-1-0.9-2.3-1.3-3.2-2.4c-0.8-1-1.3-2.2-1.9-3.3c-1.8-3.1-3.6-6.2-5.1-9.5
		c-0.8-1.7-1.5-3.3-2.3-5c-0.1-0.2-0.2-0.4-0.3-0.7c-0.4-0.8-0.5-0.8-1.3-0.4c-0.9,0.4-1.7,0.9-2.6,1.3c-0.9,0.4-1.9,0.6-2.9,0.9
		c-0.5,0.2-1,0.3-1.5,0.4c-0.2,0.1-0.4,0.2-0.5,0.4c-0.2,0.8-0.6,1-1.3,0.6c-0.7-0.4-1.3-0.2-1.6,0.5c-0.3,0.6-0.6,1.2-0.6,1.9
		c0,1.6-0.3,3.3-0.4,4.9c-0.1,1.7-0.3,3.3-0.4,5c0,1.2,0.1,2.5-0.9,3.6c-0.7,0.7-1.5,1.1-2.4,0.9c-0.7-0.2-1.4,0.1-2,0.3
		c-1,0.2-1.8,0.1-2.5-0.8c-0.4-0.6-0.4-1.2-0.4-1.8c0.1-1.6,0.2-3.2,0.3-4.8c0.6-5.2,1-10.3,1.7-15.5c0.4-3.6,0.6-7.2,1.2-10.7
		c0.5-2.7,1-5.5,1.1-8.3c0.1-1.1,0.1-2.3,0.1-3.4c0-0.4,0-0.7-0.4-1c-1-0.6-0.8-1.5-0.4-2.3c0.5-0.8,0.8-1.6,1.5-2.3
		c0.8-0.8,1.7-0.9,2.6-0.5c0.6,0.3,1.1,0.2,1.6,0c1.7-0.6,3.4-1.3,5.2-1.7c3-0.7,6.1-0.8,9.1-0.5c3,0.3,5.7,1.3,8.2,3.1
		c1.7,1.2,3,2.7,4,4.5c0.2,0.3,0.3,0.6,0.3,0.9c0,0.3,0.1,0.6,0.4,0.7c0.7,0.2,0.8,0.8,0.7,1.4c0,0.6,0.2,1.1,0.1,1.7
		c-0.1,0.3,0,0.7,0.3,1c0.2,0.2,0.3,0.4,0.2,0.7c-0.4,1.6,0.1,3.3-0.8,4.8c0.3,0.9-0.4,1.5-0.8,2.2c-0.8,1.7-1.8,3.2-2.9,4.7
		c-0.6,0.7-1.3,1.2-2.2,1.5c-1.3,0.4-2.2,1.5-3.4,2.1c-0.3,0.2-0.3,0.5-0.2,0.8c0.1,0.2,0.2,0.5,0.3,0.7c1.5,3.1,2.9,6.2,4.4,9.3
		c0.7,1.4,1.4,2.8,2.1,4.1c0.7,1.3,1.5,2.6,2.5,3.8c0.6,0.8,0.8,1.8,1,2.7c0,0.2,0.1,0.5-0.1,0.7C191.2,52,191.3,52.6,191.7,53.2z
		 M164.5,28.3c1.1-0.5,2.2-0.7,3.1-1.5c0.3-0.2,0.6-0.4,0.9-0.5c1.8-0.7,3.5-1.4,5.1-2.3c1.4-0.8,2.7-1.6,4-2.5
		c2.8-1.9,5-4.4,5.9-7.7c1-4.2-0.5-6.5-4.7-7.4c-1.3-0.3-2.6-0.1-3.9-0.1c-3-0.1-5.8,0.6-8.5,1.9c-1.1,0.5-1,0.5-0.9,1.7
		c0.2,1.4,0.5,2.8,0.4,4.3c-0.1,1-0.4,1.9-0.2,2.9c0.2,0.1,0.3-0.3,0.6,0c-0.3,0.4-0.7,0.7-0.8,1.1c-0.2,1-0.4,2.1-0.5,3.1
		c-0.1,1,0.1,2-0.5,2.9c-0.1,0.1-0.1,0.3-0.1,0.3c0.4,0.7,0,1.3-0.1,2C164.4,27.1,164.2,27.7,164.5,28.3z M169.4,34.3
		c0.2,0.3,0.5,0.1,0.8,0.1c0.3,0,0.6-0.1,0.6-0.4c-0.1-0.4-0.4-0.2-0.7-0.1C169.9,34,169.5,34,169.4,34.3z"/>
	<path fill="#EE4028" d="M34,23c-0.3,0.9,0.3,1.5,1,1.9c0.5,0.3,0.5,0.7,0.7,1.3c0.4,1,0.1,2.2,0.7,3.1c0.2,0.3,0,0.5-0.1,0.7
		c-0.7,2.4-1.4,4.8-1.9,7.3c-0.6,2.9-1.6,5.7-3.8,7.8c-2.1,1.9-4.4,3.4-7.2,4.2c-2.3,0.7-4.7,0.9-7.1,0.8c-0.8,0-1.6-0.3-2.4-0.5
		c-4.6-1.2-8.2-3.7-10.8-7.7c-1.9-2.9-2.8-6-3.2-9.4c-0.5-5,0.7-9.5,3.2-13.7c1.6-2.7,3.2-5.5,5.3-7.9c0.6-0.7,1.2-1.5,2.1-1.9
		c0.7-0.3,1.4-0.5,2.2-0.4c1.6,0.2,3.1,0.8,4.7,0.9c0.9,0.1,1.9-0.3,2.8-0.1c0.6,0.1,1.2,0.1,1.8,0.4c0.3,0.2,0.6,0.2,1,0.1
		c0.6-0.3,1.1,0.1,1.7,0.1c0.2,0,0.3,0.1,0.4,0.3c0.5,1,1.3,1.6,2.4,1.8c0.9,0.1,1.4,0.9,1.9,1.5c0.7,0.9,1.5,1.8,2.1,2.8
		c0.8,1.4,1.6,2.9,2,4.6C33.9,21.4,34.1,22.1,34,23z M16.3,19.8c-1.1,0.2-1.9,0.7-2.3,1.6c-0.6,1.4-1.4,2.7-2,4.1
		c-1.1,2.4-1.5,4.9-1.1,7.5c0,0.3,0.2,0.6,0,0.9c-0.7,1.5,0,2.9,0.5,4.1c0.5,1.3,1.5,2.4,2.7,3.1c0.3,0.2,0.6,0.3,0.7,0.6
		c0.7,1.1,2.8,2,4.1,1.7c0.9-0.2,1.8-0.4,2.6-0.7c1.9-0.7,3.7-1.6,4.6-3.5c1.3-2.7,2.3-5.6,2-8.7c-0.1-1.1-0.7-2.1-0.2-3.2
		c0-0.1,0-0.2,0-0.2c-0.3-1.6-0.8-3.1-1.3-4.6c-0.1-0.4-0.3-0.7-0.6-0.9c-1.9-1.9-4-3.4-6.1-5c-0.3-0.2-0.7-0.3-1-0.2
		c-1.5,0.4-2.3,1.5-3.2,2.6C15.3,19.4,15.8,19.6,16.3,19.8z"/>
	<path fill="#EE4028" d="M69,9.8c1.3,0.1,2.8,0.2,4.3,0.2c0.6,0,1.2,0.2,1.8,0.5c1.8,1,3.1,2.4,4,4.2c0.4,0.8,0.5,1.8,0.2,2.7
		c-0.3,1.2-1,1.6-2,1.3c-1.2-0.4-2.4-0.5-3.6-0.9c-1.2-0.4-2.4-0.1-3.5,0.4c-1.3,0.7-2.7,1-4.1,1.3c-0.9,0.2-1.6,0.6-2.3,1.1
		c-0.8,0.6-1.6,1.1-2.5,1.5c-0.6,0.3-1.1,0.6-1.5,1.1c-0.4,0.5-0.3,0.7,0.3,0.8c0.9,0.2,1.8,0.3,2.7,0.3c4.2,0.1,7.8,1.6,11.1,4.2
		c1.8,1.4,3.4,3,4.7,4.9c1.2,1.8,1.8,3.8,2,5.9c0.2,1.8-0.8,3.2-1.8,4.4c-1,1.2-2.1,2.3-3.2,3.4c-0.6,0.6-1.3,1-2,1
		c-1.9,0-3.5,1-5.2,1.7c-1.9,0.9-3.9,1.4-5.9,0.4c-0.9-0.4-1.7-0.7-2.7-0.6c-0.7,0.1-1.5-0.1-2.2-0.4c-1.8-0.7-3.7-0.9-5.5-1.7
		c-3.9-1.7-7.5-4-10.3-7.2c-1-1.1-0.8-2.2,0.5-3.1c0.7-0.5,1.5-0.7,2.4-0.9c0.3-0.1,0.6-0.1,0.8,0.1c0.8,0.8,1.9,1.3,2.5,2.3
		c0.5,0.9,1.3,1.4,2.1,1.8c2.3,1,4.6,2.1,7.1,2.4c1.1,0.2,2.1,0.1,3.2,0.1c1.5-0.1,3-0.2,4.5-0.6c0.3-0.1,0.6-0.1,0.8-0.3
		c2-1.4,3.7-3,5-5.1c0.5-0.9,0.5-1.3-0.2-2.1c-1-1.1-2.3-1.7-3.9-1.9c-3.5-0.4-6.9-1.1-9.9-3.1c-0.7-0.4-1.4-0.9-1.9-1.5
		c-1-0.9-2.2-1.6-3-2.7c-1.8-2.6-1.8-6.4,0.2-8.6c1.9-2.1,4.2-3.9,6.7-5.3c0.9-0.5,1.9-0.7,2.8-0.9c1.3-0.2,2.6-0.5,3.9-0.9
		C66.3,9.8,67.5,9.8,69,9.8z"/>
	<path fill="#EE4028" d="M291.5,54.4c0-0.6,0.6-0.7,0.4-1.2c-0.3-0.5-0.8-0.2-1.2-0.2c-0.1,0-0.3,0-0.4,0.1c-1.4,1.3-2.8,0.3-4.1,0
		c-1.4-0.4-2.6-1.3-4.2-1.3c-0.5,0-0.9-0.4-1.1-1c-0.2-1-0.6-2-1.3-2.8c-0.6-0.7-0.6-1.4,0-2c1-1,1.1-2.2,1.1-3.5
		c0.3-5.8,0.5-11.6,0.8-17.4c0.2-3.1,0.4-6.1,0.3-9.2c0-1.2-0.1-2.4-0.4-3.5c-0.2-0.9-0.5-1.7-1-2.5c-1-1.5-0.2-3.6,1.6-4
		c0.4-0.1,0.8-0.2,1.2-0.3c0.6-0.2,1.2-0.2,1.8,0.2c0.8,0.6,1.6,0.6,2.4,0.3c4.3-1.1,8.6-1.5,13.1-1.4c1.7,0.1,3.3-0.1,5-0.1
		c0.7,0,1.3-0.1,2,0.3c-0.3,1-0.3,1.9,0.4,2.7c0.3,0.4,0.4,0.9-0.1,1.4c-0.2,0.1-0.2,0.4-0.3,0.6c-1,2-2.5,2.5-4.6,1.8
		c-1.2-0.4-2.4-0.6-3.7-0.4c-1.1,0.1-2.2,0.1-3.3,0.1c-0.7,0-1.3,0-1.9,0.4c-0.3,0.2-0.7,0.2-1.1,0.2c-0.7,0-1.3,0.2-1.9,0.4
		c-1.5,0.6-1.6,0.6-1.4,2.2c0.4,2.6,0.3,5.3,0.3,7.9c0,0.6-0.1,1.2-0.2,1.8c-0.1,1.2,0.1,1.4,1.3,1.3c2.4-0.2,4.8-0.5,7.1-1.1
		c1.6-0.5,3.2-0.5,4.8-0.3c0.6,0.1,1.1,0.3,0.9,1.1c-0.1,0.2-0.1,0.5,0.2,0.6c0.6,0.2,0.6,0.6,0.4,1.1c-0.1,0.4,0,0.8,0.3,1
		c0.8,0.4,0.5,0.9,0.2,1.3c-0.6,0.6-1,1.2-1.2,2.1c-0.1,0.6-0.6,0.7-1.1,0.7c-1.3,0.2-2.7,0.4-4.1,0.3c-0.3,0-0.6-0.1-0.9,0.1
		c-0.7,0.4-1.5,0.5-2.2,0.5c-1.8,0-3.4,0.6-5.2,0.5c-0.8,0-1,0.3-1,1c-0.1,2.5-0.8,5-0.5,7.6c0.1,0.7-0.3,1.5-0.4,2.2
		c-0.1,0.9,0.1,1.2,1,1c2-0.4,4-0.9,5.9-1.4c3.4-0.8,6.8-1.6,10.3-1.9c0.4,0,0.8-0.2,1.1,0c0.9,0.3,1.6-0.1,2.2-0.6
		c0.4-0.4,0.6-0.3,1.1,0c1.3,0.8,1.9,1.9,2,3.4c0,0.6-0.1,0.9-0.4,1.4c-1.2,1.7-2.7,2.7-4.7,3.2c-2.6,0.6-5,1.7-7.5,2.4
		c-1.8,0.6-3.7,1.1-5.6,1.6c-0.5,0.1-1,0.3-0.2,0.7c0.3,0.2,0,0.3-0.1,0.4c-0.4,0.2-0.7,0.5-1.2,0.2
		C292.2,54.3,291.9,54.4,291.5,54.4z"/>
</g>
</svg>
