<?xml version="1.0" encoding="utf-8"?>
<!-- Generator: Adobe Illustrator 18.1.0, SVG Export Plug-In . SVG Version: 6.00 Build 0)  -->
<svg version="1.1" id="Layer_1" xmlns="http://www.w3.org/2000/svg" xmlns:xlink="http://www.w3.org/1999/xlink" x="0px" y="0px"
	 viewBox="0 0 100 99.8" enable-background="new 0 0 100 99.8" xml:space="preserve">
<path d="M38.4,61.7c9,8.9,19.3,17.4,23.4,13.3c5.8-5.9,9.4-11,22.4-0.7c12.9,10.3,3.1,17.3-2.6,23c-6.5,6.6-31,0.5-55.2-23.6
	c-24.2-24-30.5-48.4-24-55C8.1,13.1,14.9,3.1,25.4,16c10.4,12.9,5.3,16.5-0.5,22.4C20.8,42.5,29.4,52.8,38.4,61.7L38.4,61.7z
	 M51.4,19.2c0,0-2.7-0.4-4.6,1.5c-1.9,2-2,5.3,0,7.4c1.2,1.2,2.9,1.5,2.9,1.5c3.3,0.6,8.4,1.7,13.7,7c5.3,5.4,6.4,10.4,7,13.7
	c0,0,0.3,1.7,1.5,2.9c2.1,2.1,5.4,2,7.4,0c1.9-1.9,1.5-4.6,1.5-4.6c-1.1-6.8-4.3-13.8-10-19.5C65.2,23.6,58.1,20.3,51.4,19.2
	L51.4,19.2z M76.7,23.3c9.8,9.8,14,20.9,12.6,30c0,0-0.5,2.9,1.4,4.7c2.1,2.1,5.4,2,7.4,0c1.3-1.3,1.5-3.3,1.5-3.3
	c1.1-7.8-0.3-23.5-15.6-38.8C68.8,0.6,53.1-0.8,45.3,0.3c0,0-2.1,0.3-3.3,1.5c-2,2-2.1,5.3,0,7.4c1.9,1.9,4.7,1.4,4.7,1.4
	C55.8,9.3,66.9,13.5,76.7,23.3L76.7,23.3z M76.7,23.3"/>
</svg>
