<?xml version="1.0" encoding="utf-8"?>
<!-- Generator: Adobe Illustrator 18.1.0, SVG Export Plug-In . SVG Version: 6.00 Build 0)  -->
<svg version="1.1" id="Layer_1" xmlns="http://www.w3.org/2000/svg" xmlns:xlink="http://www.w3.org/1999/xlink" x="0px" y="0px"
	 viewBox="0 0 100 140.7" enable-background="new 0 0 100 140.7" xml:space="preserve">
<g>
	<path d="M50,33.3c-12.2,0-22.1,9.9-22.1,22.1S37.8,77.6,50,77.6s22.1-9.9,22.1-22.1S62.2,33.3,50,33.3L50,33.3z M50,67.7
		c-6.7,0-12.2-5.4-12.2-12.2S43.2,43.2,50,43.2c6.8,0,12.2,5.4,12.2,12.2S56.7,67.7,50,67.7L50,67.7z M50,67.7"/>
	<path d="M86.7,16.5C80,9,67.9,0,48.5,0C16.7,0,0,25.9,0,51.5c0,33.5,45.8,85.2,47.8,87.5c0.9,1.1,2.2,1.7,3.6,1.7h0.1
		c1.4,0,2.6-0.7,3.6-1.6c0.5-0.5,11.3-12.2,22.3-28.6c15-22.4,22.6-42.3,22.6-59C100,38.7,95.1,26,86.7,16.5L86.7,16.5z M51.6,128
		C40.8,115.1,10,76.1,10,51.4c0-20,12.1-41.5,38.6-41.5c27,0,41.5,21.4,41.5,41.5C90.1,80.4,61.8,116,51.6,128L51.6,128z M51.6,128"
		/>
</g>
</svg>
