<?xml version="1.0" encoding="utf-8"?>
<!-- Generator: Adobe Illustrator 18.1.0, SVG Export Plug-In . SVG Version: 6.00 Build 0)  -->
<svg version="1.1" id="Capa_1" xmlns="http://www.w3.org/2000/svg" xmlns:xlink="http://www.w3.org/1999/xlink" x="0px" y="0px"
	 viewBox="-212 14.7 533.3 533.3" enable-background="new -212 14.7 533.3 533.3" xml:space="preserve">
<g>
	<path d="M232.4,14.7h-355.5c-48.9,0-88.9,40-88.9,88.9v355.5c0,48.9,40,88.9,88.9,88.9h355.5c48.9,0,88.9-40,88.9-88.9V103.6
		C321.3,54.7,281.3,14.7,232.4,14.7z M211.4,242.9c-17.7,99.6-116.5,184-146.2,203.3C35.4,465.4,8.3,438.4-1.6,418
		c-11.3-23.3-45-149.4-53.8-159.9c-8.8-10.4-35.4,10.5-35.4,10.5l-12.9-16.9c0,0,53.8-64.3,94.8-72.3c43.4-8.5,43.4,66.7,53.8,108.5
		c10.1,40.4,16.9,63.5,25.7,63.5c8.8,0,25.7-22.5,44.2-57.1c18.5-34.6-0.8-65.1-37-43.4C92.4,164.1,229,143.2,211.4,242.9z"/>
</g>
</svg>
