<?xml version="1.0" encoding="utf-8"?>
<!-- Generator: Adobe Illustrator 18.1.0, SVG Export Plug-In . SVG Version: 6.00 Build 0)  -->
<svg version="1.1" id="Capa_1" xmlns="http://www.w3.org/2000/svg" xmlns:xlink="http://www.w3.org/1999/xlink" x="0px" y="0px"
	 viewBox="-41.6 -14.9 619.2 619.2" enable-background="new -41.6 -14.9 619.2 619.2" xml:space="preserve">
<g>
	<path d="M500.4,51.4L132.8-13.5C82.2-22.4,33.6,11.7,24.7,62.3l-64.8,367.6C-49.1,480.5-15,529.1,35.6,538l367.6,64.8
		c50.6,8.9,99.2-25.2,108.1-75.7l64.8-367.6C585.1,108.9,551,60.3,500.4,51.4z M437.1,283.5c-36.5,99.8-154,169-188.3,183.6
		c-34.3,14.4-57.4-18.4-63.9-41.3c-7.4-26.2-19.3-162.7-26.5-175.2c-7.2-12.4-38.5,4.4-38.5,4.4l-10.3-19.8
		c0,0,67.4-56.7,111.2-57.5c46.4-0.9,32.7,76.9,35.9,122c3.1,43.6,5.9,68.7,15,70.4s30.7-18.6,56.1-51c25.4-32.4,11-67.5-30.3-51.6
		C328.4,180.3,473.5,183.6,437.1,283.5z"/>
</g>
</svg>
