<?xml version="1.0" encoding="utf-8"?>
<!-- Generator: Adobe Illustrator 18.1.0, SVG Export Plug-In . SVG Version: 6.00 Build 0)  -->
<svg version="1.1" id="Layer_1" xmlns="http://www.w3.org/2000/svg" xmlns:xlink="http://www.w3.org/1999/xlink" x="0px" y="0px"
	 viewBox="0 0 720 480" enable-background="new 0 0 720 480" xml:space="preserve">
<g>
	<path fill="#FFFFFF" d="M314.2,243.1c-1.5,0.7-2.6,0.8-3.6-0.4c-0.2-0.3-0.7-0.6-1.1-0.7c-0.6-0.2-1.1,0-1,0.7
		c0.1,0.7,0.2,1.4,0.3,2.1c-0.3,0.4-0.8,0.4-1,0.2c-1.7-1.6-4.1-2.3-5.8-4.2c-1.5-1.8-2.4-3.9-3.5-5.8c-3.3-5.5-6.6-11.1-9.4-16.9
		c-1.4-3-2.8-6-4.2-9c-0.2-0.4-0.4-0.8-0.6-1.2c-0.8-1.5-0.9-1.5-2.3-0.7c-1.6,0.8-3.1,1.7-4.7,2.4c-1.7,0.7-3.5,1.1-5.2,1.7
		c-0.9,0.3-1.8,0.5-2.7,0.8c-0.4,0.1-0.8,0.3-0.9,0.8c-0.4,1.5-1.1,1.8-2.4,1.1c-1.2-0.6-2.3-0.4-2.9,0.8c-0.6,1-1,2.1-1,3.3
		c0,2.9-0.5,5.8-0.6,8.7c-0.1,3-0.5,5.9-0.6,8.9c-0.1,2.1,0.2,4.5-1.6,6.4c-1.2,1.3-2.6,2-4.3,1.6c-1.3-0.3-2.5,0.3-3.7,0.5
		c-1.8,0.4-3.3,0.2-4.5-1.4c-0.7-1-0.7-2.1-0.7-3.2c0.1-2.9,0.2-5.7,0.5-8.6c0.9-9.3,1.6-18.6,2.7-27.8c0.7-6.4,1-12.9,2-19.2
		c0.8-4.9,1.6-9.8,1.8-14.8c0.1-2.1,0.1-4.1,0.1-6.2c0-0.7-0.1-1.3-0.7-1.7c-1.7-1.1-1.5-2.7-0.8-4.1c0.8-1.4,1.4-3,2.7-4.2
		c1.5-1.4,3-1.6,4.6-0.9c1.1,0.5,2,0.4,2.9,0c3.1-1.2,6.2-2.4,9.4-3.1c5.4-1.3,10.9-1.6,16.4-1.1c5.3,0.5,10.3,2.3,14.7,5.4
		c3,2.1,5.5,4.7,7.3,8c0.3,0.5,0.5,1,0.6,1.6c0.1,0.5,0.2,1.1,0.8,1.2c1.3,0.4,1.4,1.4,1.3,2.5c-0.1,1,0.3,2,0.2,3
		c-0.1,0.6,0.1,1.3,0.6,1.8c0.4,0.3,0.5,0.8,0.4,1.2c-0.7,2.8,0.2,5.9-1.4,8.6c0.5,1.6-0.8,2.7-1.4,3.9c-1.4,3-3.2,5.9-5.2,8.5
		c-1,1.3-2.2,2.3-3.8,2.8c-2.4,0.7-4,2.7-6.1,3.9c-0.5,0.3-0.6,0.8-0.4,1.4c0.1,0.4,0.3,0.8,0.5,1.2c2.7,5.5,5.3,11.1,8,16.6
		c1.2,2.5,2.5,5,3.9,7.4c1.3,2.3,2.8,4.6,4.5,6.8c1.1,1.5,1.5,3.1,1.9,4.9c0.1,0.4,0.2,0.9-0.1,1.3C313.4,241,313.6,242,314.2,243.1
		z M264.9,199c1.9-0.9,3.9-1.3,5.5-2.8c0.5-0.5,1.1-0.7,1.7-1c3.1-1.2,6.2-2.6,9.2-4.3c2.5-1.4,4.9-2.9,7.2-4.6c5-3.5,9-8,10.4-14
		c1.7-7.5-1.1-11.7-8.5-13.1c-2.3-0.4-4.6-0.1-7-0.2c-5.4-0.1-10.4,1.3-15.2,3.6c-1.9,0.9-1.9,1-1.6,3c0.3,2.5,1,5,0.8,7.6
		c-0.1,1.7-0.7,3.4-0.3,5.2c0.4,0.2,0.6-0.5,1-0.1c-0.5,0.7-1.3,1.2-1.5,2.1c-0.3,1.9-0.6,3.7-0.8,5.6c-0.1,1.8,0.2,3.6-0.8,5.2
		c-0.1,0.2-0.2,0.5-0.1,0.6c0.7,1.2,0.1,2.4-0.1,3.6C264.7,196.7,264.4,197.8,264.9,199z M273.9,209.6c0.4,0.5,0.9,0.2,1.4,0.2
		c0.5,0,1.2-0.2,1.1-0.8c-0.1-0.8-0.8-0.4-1.2-0.2C274.7,209.1,274.1,209,273.9,209.6z"/>
	<path fill="#FFFFFF" d="M183.7,327.7c-1.3-0.3-2.3-1-3.4-1.1c-0.9-0.1-1.5-0.9-2-1.6c-1-1.5-2-2.9-2.9-4.4
		c-2.8-5-5.5-10.1-7.9-15.2c-0.6-1.3-1.4-1.9-2.8-2.1c-3.7-0.5-7.5-0.3-11.2,0.3c-7.6,1.1-15.2,2.3-22.9,2.5c-1.2,0-1.8,0.4-2.2,1.6
		c-0.8,2.4-1.2,4.8-1.7,7.3c-0.6,3.1-2.3,5.5-3.7,8.1c-0.7,1.3-1.6,2.5-2.4,3.6c-0.6,0.9-1.4,1.7-2.4,2.2c-0.9,0.4-1.6,1-2.4,1.6
		c-2.3,1.8-4.8,1.9-7.4,0.8c-1.5-0.6-1.8-2.2-2.6-3.4c-0.5-0.7,0.2-1.4,0.4-2.1c0.9-2.7,1.4-5.6,2.1-8.3c1.9-7.1,3.8-14.3,6.7-21.1
		c4.8-11.2,10-22.2,15.2-33.2c1.7-3.6,3.7-7,5.5-10.5c0.7-1.4,1.3-2.8,1.8-4.2c0.4-1.2,0.5-2.8,2.1-3.3c0.1,0,0.2-0.2,0.3-0.3
		c0.7-1.1,1.3-2.6,2.3-3.1c1.1-0.5,2.3-0.8,3.4-1.4c2-1.1,4-0.8,5.6,0.9c1.4,1.6,3,2.9,5,3.8c2.1,1,3.4,2.8,4.8,4.5
		c1.3,1.6,2.7,3,4,4.7c2.7,3.5,4.1,7.8,6.2,11.6c0.7,1.2,1.2,2.5,1.9,3.7c1.2,1.9,2.1,4,2.9,6.1c1.2,3.3,2.7,6.6,4.5,9.7
		c0.9,1.6,1.7,3.4,2.4,5.1c1.2,3,2.5,6.1,4.5,8.7c2,2.7,3.3,5.8,4.2,9.1c0.5,1.7,0.8,3.4,1.2,5.1c0.3,1.1,0.1,1.7-0.7,2.2
		c-0.9,0.5-1.2,1.2-1.3,2.3c-0.1,1.1-0.4,2.4-1.6,3.1c-0.7,0.4-1.1,1.2-1.6,1.8c-0.6,0.6-0.9,1.4-1.9,1.8
		C184.3,325.1,183.9,326.4,183.7,327.7z M130.5,296.7c0.4,0.5,0.8,0.4,1.1,0.3c2.5-0.3,5.1-0.8,7.6-1.3c4.7-1.1,9.4-2.2,14.2-2.6
		c1.8-0.1,3.5-0.2,5.3-0.4c2.3-0.2,2.4-0.5,1.5-2.5c-0.7-1.5-1.5-3-2.2-4.6c-3.2-7-6.9-13.7-9.6-21c-0.2-0.5-0.3-1-1-1.3
		c-1.6,2.1-2.7,4.6-4.2,6.8c-1.7,2.5-2.9,5.2-3.8,8.1c-1,3.1-2.2,6-4.1,8.7c-0.6,0.8-0.9,1.8-1.4,2.7
		C132.6,292,132.1,294.5,130.5,296.7z"/>
	<path fill="#FFFFFF" d="M484.4,174.1c-0.1-0.6,0.8-0.4,0.8-1c-1.6-0.3-3.2-1-4.9-1c-1.8,0-3.4-1-5.2-0.9c-2.3-1.8-5.4-1-7.8-2.6
		c-0.8-0.5-2-0.2-3-0.1c-0.5,0-0.8,0.4-0.9,0.8c-0.1,0.5-0.2,1-0.1,1.5c0.4,3.4-0.6,6.9-0.2,10.3c0.2,1.8-0.6,3.8,0.7,5.5
		c0.1,0.2-0.1,0.5-0.1,0.8c0.1,1.3-0.1,2.6,0.5,4c0.6,1.3,0.2,3.2-0.2,4.8c-0.2,0.6-0.3,1.1-0.2,1.7c0.9,2.8,0,5.5-0.2,8.2
		c-0.1,1-0.4,2-0.1,3c0.3,1.3-0.4,2.4-0.4,3.7c0.1,5.2,0,10.3-0.2,15.5c-0.1,2.6,0.1,5.2,0.8,7.8c0.8,3.1,1.5,6.2,1,9.5
		c-0.2,1.6-0.1,1.6-1.9,1.7c-0.5,0-0.9,0.2-1.1,0.6c-1.2,2-3.3,2.2-5.3,2.5c-1.7,0.2-3.4,0.3-4.9,1c-0.8,0.3-1.4,0.1-2.1-0.3
		c-2.1-1.3-3.3-3.1-3.5-5.5c-1.2-12.4-1.7-24.8-0.6-37.3c0.5-6.3,0.3-12.6,0.5-18.9c0.2-5.9,0.2-11.7,0.8-17.6
		c0-0.4,0.1-0.7,0.1-1.1c0.1-1-0.3-1.2-1.3-1.2c-3.5,0-7,0-10.6,0.1c-3.8,0.1-7.5-0.7-11-2c-3-1.1-5.2-3.3-6.9-6
		c-0.9-1.4-1.8-2.9-2.2-4.5c-0.4-1.4-0.5-2.9,0.4-4.2c0.6-1,1.5-1.4,2.4-0.9c3.9,1.9,8.1,1.3,12.1,1.5c7.2,0.3,14.4,0.6,21.6,0.8
		c9.6,0.2,19.2,0.7,28.8,1c2.3,0.1,4.6,0,6.8-0.2c3.6-0.3,6.2,1.5,8.6,3.8c0.6,0.6,0.6,1.2,0,1.7c-0.7,0.6-0.5,1.1-0.5,1.9
		c0.1,2.4,1,4.9-0.7,7.2c0.1,1.8-1,3.1-2.5,3.8c-1.5,0.7-3,1-4.5,1.8c-0.2,0.1-0.5,0.2-0.6,0C486.5,173.3,485.2,174.4,484.4,174.1z"
		/>
	<path fill="#FFFFFF" d="M576.6,314c0.1-1,1.2-1.3,0.8-2c-0.4-0.9-1.3-0.4-2.1-0.5c-0.2,0-0.6-0.1-0.7,0.1c-2.6,2.2-5,0.4-7.3-0.4
		c-2.5-0.8-4.6-2.5-7.3-2.7c-0.9,0-1.6-0.8-1.8-1.9c-0.3-1.8-0.8-3.6-2.1-5.1c-1-1.2-1-2.6,0.2-3.6c2-1.7,2.1-3.9,2.3-6.2
		c1-10.4,1.9-20.8,3-31.1c0.6-5.5,1.2-11,1.4-16.5c0.1-2.1,0-4.2-0.3-6.3c-0.3-1.6-0.7-3.1-1.6-4.5c-1.7-2.8,0-6.4,3.2-7
		c0.7-0.1,1.5-0.3,2.2-0.5c1.1-0.3,2.2-0.2,3.1,0.5c1.3,1.1,2.8,1.2,4.3,0.8c7.8-1.6,15.6-1.9,23.5-1.3c3,0.2,5.9,0.2,8.9,0.3
		c1.2,0,2.4-0.1,3.6,0.7c-0.6,1.7-0.6,3.3,0.5,4.9c0.5,0.7,0.7,1.7-0.3,2.5c-0.3,0.2-0.4,0.7-0.6,1.1c-1.9,3.5-4.7,4.2-8.4,2.8
		c-2.1-0.8-4.3-1.2-6.6-1.1c-1.9,0.1-3.9,0-5.8-0.1c-1.2,0-2.4-0.1-3.5,0.6c-0.6,0.4-1.3,0.3-2,0.3c-1.2,0-2.3,0.2-3.5,0.6
		c-2.8,0.9-3,0.9-2.7,3.9c0.5,4.8,0.1,9.5-0.1,14.2c-0.1,1.1-0.4,2.2-0.5,3.3c-0.2,2.2,0.1,2.6,2.3,2.5c4.3-0.2,8.6-0.4,12.9-1.4
		c2.9-0.7,5.7-0.7,8.6-0.1c1.1,0.2,1.9,0.7,1.5,2c-0.1,0.4-0.2,0.9,0.2,1.1c1.1,0.5,1,1.1,0.6,2c-0.2,0.6-0.1,1.5,0.5,1.8
		c1.5,0.8,0.9,1.7,0.2,2.4c-1.1,1-1.9,2.1-2.3,3.6c-0.2,1-1.2,1.1-2,1.2c-2.4,0.3-4.9,0.5-7.3,0.1c-0.6-0.1-1.2-0.2-1.7,0.1
		c-1.2,0.7-2.7,0.8-4,0.7c-3.2-0.2-6.2,0.7-9.4,0.5c-1.3-0.1-1.8,0.5-1.9,1.7c-0.4,4.5-1.8,8.9-1.5,13.6c0.1,1.3-0.6,2.6-0.9,3.9
		c-0.3,1.7,0,2.1,1.7,1.8c3.6-0.6,7.2-1.3,10.8-2c6.2-1.2,12.4-2.3,18.6-2.4c0.7,0,1.4-0.2,2,0c1.6,0.6,2.8,0,4-0.9
		c0.7-0.6,1.1-0.4,1.9,0.1c2.3,1.5,3.3,3.5,3.2,6.2c0,1-0.3,1.7-0.9,2.5c-2.2,2.9-5.1,4.6-8.7,5.2c-4.7,0.9-9.1,2.5-13.7,3.7
		c-3.4,0.8-6.7,1.6-10.1,2.4c-0.8,0.2-1.7,0.4-0.4,1.3c0.6,0.4,0,0.6-0.2,0.7c-0.7,0.3-1.4,0.9-2.1,0.2
		C577.8,313.9,577.2,314.1,576.6,314z"/>
</g>
</svg>
