<?xml version="1.0" encoding="utf-8"?>
<!-- Generator: Adobe Illustrator 18.1.0, SVG Export Plug-In . SVG Version: 6.00 Build 0)  -->
<svg version="1.1" id="Layer_1" xmlns="http://www.w3.org/2000/svg" xmlns:xlink="http://www.w3.org/1999/xlink" x="0px" y="0px"
	 viewBox="0 0 720 480" enable-background="new 0 0 720 480" xml:space="preserve">
<g>
	<path fill="#FFFFFF" d="M245.4,235.7c-1.4-1.4-1.4-1.4-2.6-0.2c-2.2,2.3-4.8,3.7-7.9,4.6c-4.4,1.3-8.8,2-13.3,1.2
		c-6.3-1.2-12.3-3.1-17.1-7.6c-8.1-7.4-12.6-16.7-13.7-27.6c-0.7-6.8,0.2-13.5,1.6-20.2c1.4-6.9,3.9-13.3,6.2-19.9
		c2.8-8.3,5.2-16.7,7.9-24.9c0.5-1.4,0.6-2.9,0.7-4.3c0.1-1.8,1-2.8,2.8-3c0.5-0.1,1.1-0.2,1.6-0.1c3.9,1,7.3,2.8,10.2,5.7
		c0.7,0.8,0.7,1.9,1,2.8c1.2,3.5,1.6,7-0.5,10.5c-1.3,2.2-2.1,4.6-2.9,7c-0.6,1.8-1.7,3.4-2.7,5c-0.5,0.7-0.9,1.4-0.6,2.5
		c1-0.5,1.7-1.3,1.8-2.2c0.2-1.6,1.2-2.3,2.4-3.2c0.1,2.7-0.8,5.1-1.5,7.6c-0.6,1.8-1.2,3.5-1.5,5.3c-0.5,2.5-1.4,4.9-2.7,7.1
		c-0.3,0.6-0.4,1,0.3,1.3c0.8,0.4,0.7,1,0.3,1.5c-1.2,1.8-1.6,3.8-2.2,5.8c-0.3,0.8-0.6,1.6-1.2,2.2c-0.8,0.8-0.8,1.7-1.1,2.6
		c0.7,0.4,1-0.4,1.5-0.3c0.5,2.6,0.3,5.1,0.1,7.6c-0.1,1.2-0.5,2.2-0.9,3.3c-0.7,1.8-0.9,3.6,0,5.4c0.3,0.7,0.2,1.4,0.3,2
		c0.4,2.6,1.7,4.7,3.3,6.7c2.7,3.3,5.5,6.5,10,7.5c1.5,0.3,3,0.5,4.6,0.6c1,0.1,2.1-0.1,2.9-0.6c5-3.5,9.3-7.6,10.7-13.7
		c1.1-4.8,1.4-9.8,1.4-14.7c0-3.9,0.1-7.7,0.2-11.6c0.2-4.8,0-9.6,0.2-14.4c0.2-5.2,0.4-10.5,0.9-15.7c0.5-6.3,3.4-11.1,8.3-14.8
		c0.6-0.4,1.2-0.8,1.8-1.1c0.8-0.4,1.7-1,1.9,0.6c1.9,1.3,3,3.6,5.3,4.5c0.5,0.2,0.9,0.6,1,1.2c0.1,0.8,0.5,1.3,1.3,1.3
		c1.1,0.1,1.3,0.8,0.9,1.6c-0.4,0.8-0.5,1.4,0,2.3c0.6,1,0,2.3-1.1,2.9c-0.8,0.4-1.5,1-1.5,1.9c-0.1,1.5-0.7,2.8-1.3,4.1
		c-0.8,1.7-1.1,3.4-0.7,5.2c0.3,1.6-0.3,3.2-0.3,4.8c-0.2,4.3,0.3,8.6,0.4,12.9c0,1.7,0.2,3.4,0.6,5c0.6,2.8,0,5.5-0.9,8.1
		c-0.2,0.6-0.6,1.1-0.5,1.8c0.2,2.2-0.3,4.3-0.5,6.4c0,0.3-0.2,0.7,0,0.9c1,1.7,0,3.4-0.5,4.9c-1.6,4.8-3.5,9.4-6,13.7
		c-1.5,2.6-3.2,5.3-5.6,7.3C247.1,233.8,246.6,235.1,245.4,235.7z M212.6,175.9c-0.7,0.8-0.9,1.7-1.3,2.5c-1.2,2.4-1.1,5.3-2.7,7.6
		c-0.4,0.6-0.4,1.3-0.2,2c0.1,0.3,0.3,0.6,0.5,0.7c0.4,0.2,0.8-0.1,0.9-0.5c0.5-1.2,1.4-2.5,1.3-3.6c-0.2-2.3,0.8-4.2,1.5-6.2
		C212.9,177.7,213.4,176.9,212.6,175.9z M205.7,197.5c0,0.3-0.1,0.5-0.1,0.7c0,0.4-0.3,1,0.3,1.2c0.5,0.2,0.9-0.2,1.1-0.6
		c0.6-1.3,1.1-2.7,1.6-4.1c0.1-0.4,0-0.8-0.4-1c-0.5-0.2-1-0.1-1.2,0.4C206.5,195.3,205.6,196.2,205.7,197.5z"/>
	<path fill="#FFFFFF" d="M419.4,298.2c-1.3-0.6-2.2-1.4-3.3-1.8c-0.9-0.3-1.4-1.2-1.8-2c-0.7-1.7-1.5-3.4-2.1-5.1
		c-1.9-5.7-3.7-11.5-5.2-17.3c-0.4-1.5-1.1-2.2-2.5-2.7c-3.8-1.3-7.7-1.7-11.6-1.9c-8.1-0.3-16.2-0.5-24.2-1.8
		c-1.2-0.2-1.9,0.1-2.6,1.3c-1.3,2.3-2.2,4.8-3.2,7.2c-1.2,3.1-3.5,5.2-5.5,7.7c-1,1.2-2.1,2.2-3.2,3.3c-0.8,0.8-1.8,1.5-2.9,1.8
		c-1,0.3-1.9,0.8-2.7,1.2c-2.7,1.4-5.4,1.1-7.9-0.6c-1.4-1-1.4-2.7-2.1-4.1c-0.4-0.8,0.4-1.4,0.8-2.1c1.4-2.7,2.5-5.5,3.8-8.2
		c3.3-7,6.7-14,11-20.6c7.1-10.7,14.7-21,22.2-31.3c2.4-3.4,5.2-6.5,7.8-9.8c1-1.3,1.9-2.6,2.7-4c0.7-1.2,1.1-2.8,2.8-3
		c0.1,0,0.3-0.2,0.4-0.3c1-1,1.8-2.5,2.9-2.7c1.2-0.3,2.5-0.3,3.8-0.7c2.3-0.8,4.3-0.1,5.6,2.1c1.1,2,2.6,3.6,4.4,4.9
		c1.9,1.4,2.9,3.6,4,5.6c1.1,1.9,2.2,3.7,3.2,5.6c2.1,4.2,2.7,8.8,4.1,13.2c0.5,1.4,0.8,2.8,1.3,4.2c0.9,2.2,1.4,4.5,1.8,6.9
		c0.6,3.7,1.5,7.3,2.7,10.9c0.7,1.8,1.1,3.8,1.5,5.8c0.6,3.4,1.4,6.8,3,9.9c1.6,3.2,2.3,6.7,2.6,10.2c0.2,1.8,0.1,3.7,0.3,5.5
		c0.1,1.2-0.3,1.8-1.2,2.2c-1,0.4-1.5,1-1.8,2.1c-0.3,1.1-0.9,2.4-2.3,2.9c-0.8,0.3-1.3,1-2,1.5c-0.7,0.5-1.2,1.3-2.3,1.4
		C420.5,295.7,419.9,296.9,419.4,298.2z M370.4,255.8c0.3,0.6,0.7,0.5,1.1,0.6c2.7,0.2,5.4,0.2,8.1,0.1c5.1-0.2,10.2-0.5,15.2,0.1
		c1.8,0.2,3.7,0.5,5.5,0.7c2.4,0.2,2.6,0,2-2.3c-0.4-1.7-0.9-3.4-1.4-5.1c-2-7.8-4.5-15.6-5.8-23.6c-0.1-0.5-0.1-1.1-0.8-1.5
		c-2,1.9-3.7,4.2-5.7,6.2c-2.2,2.3-4,4.9-5.5,7.6c-1.6,3-3.5,5.8-5.9,8.2c-0.8,0.8-1.3,1.7-2,2.5
		C373.5,251.3,372.4,253.8,370.4,255.8z"/>
	<path fill="#FFFFFF" d="M593.9,368.3c-1.3-0.7-2.1-1.5-3.2-1.9c-0.9-0.3-1.4-1.2-1.7-2.1c-0.7-1.7-1.4-3.4-2-5.2
		c-1.8-5.8-3.4-11.6-4.7-17.4c-0.3-1.5-1.1-2.3-2.4-2.8c-3.7-1.4-7.6-1.9-11.6-2.2c-8.1-0.5-16.2-1-24.1-2.5c-1.2-0.2-1.9,0-2.6,1.2
		c-1.3,2.3-2.4,4.7-3.4,7.1c-1.3,3-3.6,5.1-5.7,7.5c-1,1.2-2.2,2.2-3.3,3.2c-0.9,0.8-1.8,1.4-3,1.7c-1,0.3-1.9,0.7-2.8,1.1
		c-2.8,1.3-5.4,0.9-7.8-0.8c-1.4-1-1.4-2.7-1.9-4.1c-0.3-0.8,0.5-1.4,0.8-2c1.5-2.6,2.6-5.4,4-8.1c3.5-6.9,7.1-13.8,11.6-20.2
		c7.4-10.5,15.3-20.5,23.1-30.7c2.5-3.3,5.4-6.4,8-9.5c1-1.2,1.9-2.6,2.8-4c0.7-1.2,1.1-2.7,2.9-2.9c0.1,0,0.3-0.2,0.4-0.3
		c1-0.9,1.9-2.4,3-2.6c1.2-0.2,2.5-0.3,3.8-0.6c2.3-0.7,4.3,0,5.5,2.2c1.1,2,2.5,3.7,4.3,5.1c1.9,1.4,2.8,3.7,3.9,5.7
		c1,1.9,2.1,3.7,3,5.7c2,4.3,2.4,8.9,3.7,13.3c0.4,1.4,0.7,2.8,1.2,4.2c0.8,2.2,1.3,4.5,1.6,6.9c0.5,3.7,1.2,7.4,2.4,11
		c0.6,1.8,1,3.8,1.3,5.8c0.5,3.4,1.2,6.8,2.7,10c1.5,3.3,2.1,6.7,2.3,10.3c0.1,1.8,0,3.7,0.1,5.5c0.1,1.2-0.3,1.8-1.3,2.1
		c-1,0.4-1.5,0.9-1.8,2.1c-0.3,1.1-0.9,2.4-2.4,2.8c-0.8,0.2-1.4,1-2,1.5c-0.7,0.5-1.3,1.2-2.3,1.4
		C595.1,365.8,594.5,367,593.9,368.3z M546.2,324.5c0.3,0.6,0.7,0.6,1.1,0.6c2.7,0.2,5.4,0.3,8.1,0.3c5.1,0,10.2-0.2,15.2,0.6
		c1.8,0.3,3.7,0.6,5.5,0.8c2.4,0.3,2.6,0,2.1-2.3c-0.4-1.7-0.8-3.4-1.2-5.2c-1.8-7.9-4-15.7-5.1-23.7c-0.1-0.5-0.1-1.1-0.7-1.5
		c-2.1,1.8-3.8,4.1-5.8,6.1c-2.3,2.2-4.1,4.7-5.7,7.5c-1.7,2.9-3.6,5.7-6.1,8.1c-0.8,0.7-1.3,1.7-2.1,2.5
		C549.4,320.1,548.3,322.6,546.2,324.5z"/>
	<path fill="#FFFFFF" d="M694.3,319.5c-0.7,1.9,0.6,3.1,2.1,4.2c1,0.7,1.2,1.6,1.6,2.7c0.8,2.2,0.2,4.7,1.6,6.6c0.4,0.6,0,1-0.1,1.5
		c-1.5,5.2-3,10.4-4.1,15.7c-1.2,6.3-3.4,12.3-8.2,16.8c-4.4,4.2-9.6,7.3-15.5,9.1c-5,1.5-10.1,1.9-15.3,1.8c-1.8,0-3.5-0.6-5.2-1.1
		c-10-2.5-17.7-8.1-23.3-16.7c-4-6.2-6.1-12.9-6.9-20.3c-1.1-10.7,1.6-20.5,7-29.6c3.5-5.9,7-11.8,11.4-17.1
		c1.3-1.6,2.6-3.1,4.5-4.1c1.6-0.7,3.1-1,4.8-0.8c3.4,0.4,6.7,1.7,10.2,1.8c2,0.1,4-0.6,6.1-0.2c1.3,0.3,2.7,0.2,3.9,0.8
		c0.7,0.4,1.4,0.5,2.1,0.2c1.3-0.6,2.4,0.2,3.7,0.2c0.4,0,0.6,0.2,0.8,0.6c1.1,2.1,2.7,3.5,5.2,3.8c2,0.2,3,1.9,4.1,3.2
		c1.6,1.9,3.3,3.8,4.5,6c1.8,3.1,3.5,6.4,4.4,9.9C694,316.2,694.4,317.7,694.3,319.5z M655.9,312.7c-2.4,0.4-4.2,1.5-5,3.4
		c-1.3,3-2.9,5.9-4.3,8.9c-2.4,5.2-3.2,10.5-2.3,16.1c0.1,0.6,0.3,1.4,0.1,1.8c-1.6,3.2,0,6.2,1.1,8.9c1.1,2.8,3.2,5.2,5.9,6.7
		c0.6,0.4,1.2,0.7,1.6,1.4c1.5,2.4,6,4.3,8.8,3.7c1.9-0.4,3.9-0.8,5.7-1.5c4.1-1.5,8.1-3.5,10.1-7.5c2.9-5.9,4.9-12,4.2-18.8
		c-0.2-2.3-1.6-4.6-0.5-7c0.1-0.1-0.1-0.3-0.1-0.5c-0.7-3.4-1.7-6.7-2.8-10c-0.3-0.8-0.6-1.4-1.2-2c-4.1-4.1-8.7-7.4-13.3-10.8
		c-0.7-0.5-1.4-0.6-2.3-0.4c-3.2,0.8-5,3.2-6.9,5.6C653.8,311.8,654.9,312.2,655.9,312.7z"/>
	<path fill="#FFFFFF" d="M116.6,178c0.5-8.4,1.2-16.7,1-25.1c-0.1-2.1-0.1-4.1-0.2-6.1c-0.1-1-0.1-2.2-0.7-2.8
		c-1.5-1.4-1.5-3.1-1.7-4.9c-0.5-3.3,1.2-5.3,4.5-5.2c0.2,0,0.4,0,0.5,0c5.3,1.8,10.6,0.3,15.9,0.2c6.4-0.1,12.8,0.4,19.1,2
		c0.2,0,0.4,0.1,0.5,0.1c6.8,3.5,13.2,7.4,17.4,14.1c2.4,3.9,4.8,7.7,6.2,12.1c1.4,4.3,0.9,8.6,0.4,12.9c-0.6,5.4-3.2,10-5.7,14.5
		c-2.7,5.2-6.4,9.8-11.1,13.5c-1.6,1.3-3.6,1.9-5.3,3.2c-2.9,2.2-5.8,4.4-9.1,5.9c-2.9,1.3-5.6,3.1-8.5,4.4c-2.3,1-4.9,1.3-7.4,1.8
		c-0.7,0.1-1.4,0-2.1,0.3c-0.4,0.1-0.9,0.2-0.9-0.2c-0.2-1.8-1.9-1.3-2.8-2c-1.8-1.5-3.6-3.1-6.2-3c-2.2-2-4.5-3.6-4.2-7.4
		c0.5-5.4,0.2-10.9,0.3-16.3C116.6,186,116.6,182,116.6,178z M164.5,167.8c0.3-3.8-0.5-7-2.4-10.1c-1.9-3-4-5.6-6.8-7.8
		c-1.8-1.4-3.6-2.2-5.7-2.5c-5.6-1-11.3-0.8-17-1.1c-1.6-0.1-2.1,0.5-1.7,2.1c0.4,1.6,0.8,3.3,0.9,5c0.5,7.7,0.6,15.4,0.6,23.2
		c0,3.4,0.8,6.6,0.7,10c-0.1,2.9,0.8,5.8-0.3,8.7c-0.4,1-0.1,2.4,0.9,3.2c1,0.7,1.8,0,2.7-0.4c3.4-1.6,6.7-3.2,9.9-5.2
		c6.4-4,12.1-8.6,15.7-15.6C163.7,174.1,165.1,171.2,164.5,167.8z"/>
	<path fill="#FFFFFF" d="M64.4,200.3c-0.3-1,0.8-1.7,0.1-2.3c-0.7-0.7-1.5,0-2.2,0.2c-0.3,0.1-0.6,0.1-0.7,0.3c-1.8,3-4.9,2-7.5,2
		c-2.7,0-5.4-1-8.2-0.2c-0.9,0.3-1.9-0.3-2.4-1.3c-0.9-1.7-2-3.3-3.8-4.3c-1.4-0.9-1.8-2.2-1-3.7c1.4-2.4,0.8-4.6,0.2-6.9
		c-2.5-10.7-5-21.4-7.4-32.1c-1.2-5.7-2.5-11.3-4.1-16.9c-0.6-2.1-1.4-4.2-2.5-6.2c-0.8-1.5-1.7-2.8-3.1-4c-2.7-2.2-2.2-6.4,0.9-8
		c0.7-0.4,1.4-0.8,2.1-1.2c1-0.7,2.1-1,3.3-0.5c1.7,0.7,3.1,0.2,4.6-0.6c7.2-4.2,15-7.1,23.1-9.1c3-0.7,6-1.8,9-2.7
		c1.2-0.3,2.3-0.9,3.8-0.5c-0.1,1.9,0.5,3.5,2.2,4.7c0.8,0.6,1.3,1.5,0.5,2.6c-0.2,0.3-0.1,0.9-0.2,1.3c-0.7,4.1-3.3,5.8-7.4,5.6
		c-2.3-0.1-4.7,0.2-6.9,1.1c-1.9,0.8-3.9,1.3-5.9,1.9c-1.2,0.4-2.4,0.7-3.3,1.7c-0.5,0.6-1.2,0.7-1.9,1c-1.2,0.4-2.3,1-3.3,1.8
		c-2.5,1.8-2.7,1.9-1.4,4.7c2.1,4.6,3.3,9.4,4.6,14.2c0.3,1.1,0.4,2.3,0.6,3.4c0.5,2.3,1,2.6,3.1,1.8c4.3-1.6,8.5-3.3,12.4-5.7
		c2.6-1.6,5.5-2.6,8.5-2.9c1.2-0.1,2.2,0,2.2,1.5c0,0.5,0.1,1,0.6,1.1c1.2,0.1,1.3,0.8,1.3,1.8c0,0.7,0.4,1.5,1.1,1.6
		c1.7,0.3,1.5,1.4,1,2.3c-0.8,1.4-1.2,2.7-1.1,4.3c0.1,1.1-0.8,1.5-1.6,1.9c-2.3,1.1-4.7,2.1-7.3,2.6c-0.6,0.1-1.2,0.2-1.7,0.7
		c-1,1.1-2.4,1.7-3.7,2c-3.2,0.8-6,2.8-9.2,3.6c-1.4,0.3-1.6,1.1-1.3,2.3c1.1,4.7,1.2,9.5,3,14c0.5,1.3,0.3,2.8,0.5,4.2
		c0.2,1.8,0.7,2.1,2.2,1.2c3.4-1.8,6.7-3.7,10.1-5.6c5.8-3.2,11.6-6.4,17.8-8.7c0.7-0.2,1.4-0.7,2-0.6c1.8,0.1,2.8-0.9,3.6-2.3
		c0.5-0.9,1-0.8,1.9-0.5c2.8,0.8,4.4,2.4,5.3,5.1c0.3,1,0.2,1.8-0.1,2.8c-1.3,3.6-3.6,6.3-6.9,8.1c-4.4,2.4-8.3,5.6-12.5,8.3
		c-3.1,2-6.2,3.8-9.3,5.7c-0.8,0.5-1.6,1,0,1.5c0.7,0.2,0.2,0.6,0,0.7c-0.5,0.6-1.1,1.4-2,0.9C65.6,199.8,65.1,200.2,64.4,200.3z"/>
	<g>
		<path fill="#FFFFFF" d="M448.8,331.3c0.6,0.6,1.1,1.4,2.3,1.5c-0.4-2.1-1.4-3.7-2.1-5.5c-4.1-10.7-5.3-21.4-1.6-32.5
			c1.5-4.4,3.8-8.4,6.3-12.3c4.3-6.6,10-11.9,16-16.8c3-2.4,6.6-4,10.2-5.2c1.6-0.5,3.2-0.6,4.7,0.1c2.2,1,4.4,2,6.4,3.3
			c2.1,1.4,2.7,3.1,1.8,5.5c-0.9,2.2-2.1,4.2-4.8,4.5c-1.1,0.1-1.9,0.7-2.5,1.4c-1.1,1.5-2.5,2.5-4,3.5c-0.6,0.4-1.3,0.8-1.5,1.5
			c-0.6,2.6-2.8,4-4.6,5.4c-2.7,2-4.7,4.4-5.8,7.4c-0.7,1.9-1.9,3.4-3.1,5c-1.9,2.3-3.1,4.8-2.9,7.8c0.1,1-0.3,1.9-0.6,2.9
			c-0.7,2-0.7,4.1,0,6c1.5,4.3,2.1,8.9,4.1,13c3.2,6.7,9.1,12.1,17.5,8.9c2.2-0.8,4.1-2.2,5.9-3.6c6.8-5.2,12.9-11.2,19.2-17.1
			c0.5-0.5,0.9-1.4,1.9-1.2c0.3,1-0.3,1.9-0.5,2.8c-0.8,3-0.4,6.2-1.4,9.2c-0.6,1.9-1.1,3.7-2.8,5c-0.9,0.7-1.5,1.8-2.1,2.7
			c-0.7,1-1.4,2-2.4,2.8c-0.8,0.6-1.5,1.3-1.9,2.2c-0.5,1.3-1.7,2-2.7,2.5c-3,1.6-5.7,3.8-9.3,4.3c-1.5,0.2-2.9,1.2-4.4,1.7
			c-5.8,1.8-11.5,1-17.1-1c-4.2-1.5-7.6-4.2-10.8-7.3c-0.6-0.6-1-1.5-2.1-1.8c-0.6,1.5,0.1,3,0.3,4.3"/>
		<path fill="#FFFFFF" d="M491,348c-0.3,4.4,1.1,8.5,1.6,12.7c0.3,3.1,0.5,6.1,0.3,9.2c-0.2,4.5-2.9,7.7-6.5,8.1
			c-1,0.1-2-0.1-2.9-0.8c-1.2-1-0.3-2.2-0.2-3.3c0-1.3,0.1-2.7,0-4c-0.7-7.2-0.7-14.4-0.4-21.6c0.1-3.4,1.2-6.2,3.6-8
			c2.2-1.7,4-0.7,4.4,2.4C491.1,344.3,491,346.1,491,348z"/>
	</g>
	<g>
		<path fill="#FFFFFF" d="M280.5,225.7c0.5,0.7,0.8,1.6,2.1,1.8c0-2.1-0.8-3.9-1.3-5.7c-2.5-11.2-1.9-22,3.3-32.3
			c2.1-4.1,5-7.8,8.1-11.2c5.2-5.9,11.7-10.2,18.4-14.1c3.3-2,7.1-2.9,10.9-3.6c1.6-0.3,3.2-0.1,4.6,0.8c2,1.3,4.1,2.6,5.8,4.3
			c1.8,1.7,2.2,3.5,0.9,5.7c-1.2,2-2.7,3.8-5.4,3.7c-1.1-0.1-2,0.4-2.6,1.1c-1.3,1.3-2.9,2.1-4.5,2.9c-0.6,0.3-1.4,0.6-1.7,1.2
			c-1,2.4-3.3,3.5-5.4,4.6c-3,1.5-5.3,3.6-6.9,6.4c-1,1.7-2.4,3.1-3.8,4.4c-2.2,2-3.8,4.2-4,7.3c-0.1,1-0.6,1.9-1,2.7
			c-1,1.9-1.3,3.9-0.9,6c0.8,4.5,0.8,9.1,2.1,13.4c2.2,7.1,7.2,13.3,15.9,11.5c2.3-0.5,4.4-1.5,6.4-2.6c7.5-4.1,14.5-9.1,21.5-14
			c0.6-0.4,1.1-1.2,2.1-0.9c0.1,1.1-0.5,1.9-0.9,2.7c-1.2,2.9-1.3,6.1-2.8,8.9c-0.9,1.8-1.7,3.5-3.5,4.5c-1,0.6-1.7,1.5-2.5,2.4
			c-0.9,0.9-1.7,1.8-2.8,2.4c-0.9,0.5-1.7,1-2.2,1.9c-0.7,1.2-2,1.7-3.1,2.1c-3.2,1.1-6.3,2.8-9.8,2.9c-1.6,0-3.1,0.8-4.7,1
			c-6.1,0.9-11.5-0.8-16.7-3.6c-3.9-2.1-6.9-5.3-9.5-8.8c-0.5-0.7-0.8-1.6-1.8-2.1c-0.8,1.4-0.4,2.9-0.4,4.3"/>
	</g>
	<path fill="#FFFFFF" d="M591.5,248.6c-5.9-1.9-14.3,8.3-20.3,7.3c-4.3-0.7-8.6-1.7-12.7-2.9c-6.1-1.8-9.8-5.8-9.3-9.8
		c0.1-1.1,0.8-2.1,2-2.8c1.7-1,3.1,0.5,4.6,0.9c1.8,0.5,3.7,1.1,5.6,1.4c10.1,1.8,22.4-5.8,32.3-2.9c4.6,1.3,13.4,4.6,15.3,7.8
		c1.7,2.9-0.1,4.5-4.5,3.8C601.9,251.2,594.1,249.2,591.5,248.6z"/>
</g>
</svg>
