<?xml version="1.0" encoding="utf-8"?>
<!-- Generator: Adobe Illustrator 18.1.0, SVG Export Plug-In . SVG Version: 6.00 Build 0)  -->
<svg version="1.1" id="Layer_1" xmlns="http://www.w3.org/2000/svg" xmlns:xlink="http://www.w3.org/1999/xlink" x="0px" y="0px"
	 viewBox="0 0 755.6 125" enable-background="new 0 0 755.6 125" xml:space="preserve">
<g>
	<path d="M581.3,62.6c-0.3-6.4,0.5-13.6,1.7-20.8c1.4-8.4,1.6-17,2.3-25.5c0.1-1-0.1-2.1-0.2-3.1c-0.2-2.9,1.9-5.2,4.8-4.9
		c5,0.7,9.1,2.8,11.6,7.4c0.6,1.1,0.4,2.3,0.7,3.5c1.1,4,1.4,8.2,1.3,12.3c-0.2,7.3-0.1,14.6-1.1,21.8c-0.4,3-0.4,6-0.4,9
		c0,2.9-0.8,5.6-1.2,8.4c-0.5,3.1-0.6,6.1,0,9.2c0.3,1.9,0.7,3.7,1.1,5.6c0.5,2.5,1.2,5,2.7,6.9c1.5,1.9,2.6,4.1,4.2,5.7
		c2.6,2.5,5.8,4.2,9.3,5.3c3,1,5.3-0.3,7.4-2.2c1-0.9,1.9-2,2.8-3.1c0.6-0.6,0.9-1.3,1.1-2.1c2.5-8.9,4-18,4.2-27.2
		c0.1-4.6-0.3-9.1-0.4-13.7c-0.1-3.8-0.1-7.5,0.2-11.3c0.4-5.1,0.6-10.1,1.2-15.2c0.4-3.3,0.6-6.7,2.7-9.6c1.1-1.5,2.3-2.9,3.3-4.4
		c0.7-1.1,2.2-0.8,3.3-0.6c1.8,0.4,3.5,0.8,5.3-0.3c1.1-0.7,3.2,0.2,4,1.4c0.4,0.7,0.7,1.4,1.7,1.4c0.9,0,1.1,0.8,0.9,1.6
		c-0.4,2.2-0.7,4.5-1.3,6.7c-0.4,1.3-0.1,2.8-1.3,3.9c-0.1,0.1-0.1,0.3-0.1,0.4c0.6,2.8-0.7,5.5-0.5,8.2c0.2,2.3,0.3,4.6,0.2,6.8
		c-0.2,3.5-0.1,7.1-0.2,10.6c-0.1,4.5,0.1,9-0.5,13.5c-0.4,3.2-0.5,6.4-0.8,9.7c0,0.3,0,0.6-0.1,0.9c-1.6,4.5-1.9,9.3-4,13.7
		c-3.1,6.5-7.1,12.2-12.6,17c-4.1,3.6-9,5.5-13.8,7.7c-3.4,1.5-7,1.4-10.6,0.4c-9.7-3-17.1-8.8-22.4-17.5
		c-3.8-6.2-5.3-12.9-5.9-19.9C581.4,74.7,581.3,69.1,581.3,62.6z"/>
	<path d="M549.4,96.8c1.5,1.8,3.5,2.8,5.2,4.3c2.5,2.1,5.2,3.9,7.2,6.5c0.8,1.1,1.2,2.2,1.2,3.5c0,1.3-0.8,2.1-1.7,3.1
		c-2,2.5-4.9,1.6-7.3,2.4c-0.6,0.2-1-0.5-1.5-0.8c-4.2-2.5-7.3-6.3-11-9.4c-0.3-0.3-0.6-0.6-0.9-0.9c-1.5-1.4-1.7-1.4-3.5-0.4
		c-2.3,1.3-4.7,2.4-7.3,3.2c-5.4,1.8-10.9,2.2-16.5,1.9c-2-0.1-4-0.4-5.9-0.6c-6.5-0.7-12.4-3-17.7-6.8c-4.6-3.2-8.6-7-11.9-11.6
		c-4-5.5-5.7-11.8-5.8-18.5c-0.1-12.5,2.6-24.4,8.5-35.3c3.3-6.1,8.2-10.6,14.6-13.5c2.4-1.1,4.8-2.3,7.3-3.3c2.1-0.8,4-1.9,5.6-3.6
		c1.4-1.5,3-2.8,4.8-3.9c1.3-0.8,2.6-0.9,4-0.3c4.6,1.8,9.1,3.7,13.4,6c3.9,2.1,8.1,3.8,11.9,6.3c3,2,5.7,4,8.1,6.8
		c1.5,1.8,3.1,3.6,4.7,5.3c2.6,2.9,3.8,6.4,4.7,10c0.7,2.7,0.8,5.6,1.4,8.3c0.9,4,1.2,8,1.3,12c0.1,3.6,0.2,7.3-0.8,10.8
		c-0.3,0.8-0.8,1.5-1.2,2.2c-1.9,3.9-4.4,7.4-7,10.8C552.2,93.2,550.9,95,549.4,96.8z M528.5,94.8c-3.3-3.3-6.2-6.5-8.8-10.2
		c-1.1-1.6-1.5-3.3-1.5-5.2c0-1.9,0.9-3.2,2.8-3.6c1.7-0.4,3.3-0.1,4.6,1.2c3.5,3.8,7.8,6.8,11.4,10.5c1,1,1.6,0.7,2.4-0.2
		c2-2.1,3.7-4.2,5.1-6.7c1.4-2.5,2.1-5.1,1.8-7.9c-0.5-4.6-1.2-9.2-1.8-13.8c-0.3-1.9-1-3.7-2.5-5.1c-0.6-0.5-1.1-1.3-1.4-2
		c-1-2.5-2.5-4.8-4.1-6.9c-0.7-0.9-1.6-1.7-2.3-2.6c-4.5-6-10.3-10.3-16.5-14.3c-1.6-1-3.1-1-4.7-0.4c-5.2,2.1-10.1,4.7-14,8.9
		c-3.2,3.5-6,7.4-8.1,11.8c-3.8,8-5.7,16.3-4.9,25.2c0.5,4.9,2.1,9.3,4.9,13.2c3,4.3,7.1,7.4,11.9,9.7c1,0.5,2,0.9,3.1,1
		c5.6,0.9,11.3,0.9,16.9,0C524.7,97.1,526.7,96.5,528.5,94.8z"/>
	<path d="M179.9,65.2c-0.2,3.2,0.4,5.5,0.1,7.8c-0.4,3.1-1.5,6.1-2.4,9.1c-1.1,3.9-1.4,7.9-3,11.7c-2.2,5.3-5.8,9.4-10,13.1
		c-4.9,4.3-10.2,8.1-16.4,10.2c-11.4,3.9-23,5.4-34.7,1.2c-6.2-2.3-11.1-6.6-15.5-11.4c-1.8-2-3.5-4.2-5.2-6.4
		C86.7,92,84,82.3,83.5,71.8c-0.8-17,4.9-31.8,16.2-44.4c6-6.6,12.9-12.2,20.4-17.1c3.2-2.1,6.8-2.2,10.2-1.9
		c4.9,0.4,9.7,1.6,14.6,2.6c2.8,0.6,4.2,2.4,4.7,4.9c0.4,2,1.3,3.2,3.2,4.3c4.8,2.6,9,6.1,12.7,10.2c0.5,0.5,0.9,1.2,1.4,1.5
		c3.2,1.9,5.1,5.2,7.8,7.5c0.3,0.2,0.7,0.7,0.6,1c-0.8,2.7,1.9,4.1,2.2,6.3c0.3,2.2,0.6,4.4,1,6.6C179.4,57.6,179.9,61.8,179.9,65.2
		z M133.4,104.4c2.8-0.2,8.3-0.9,13.3-3.7c10.8-6.1,17.1-15.5,19.9-27.4c0.7-2.9,1.1-6.2-0.6-9.2c-0.1-0.2-0.3-0.7-0.2-0.8
		c1-1.8-0.1-3.2-0.8-4.5c-3.4-6.7-7.9-12.7-13.5-17.8c-5.8-5.3-12.4-9.7-17-16.3c-0.7-1-1.6-1.4-2.9-0.9c-2.6,1.1-5.2,2.2-7.3,4.2
		c-2.1,2.1-4.3,4-6.3,6.1c-1.6,1.6-3.2,3.1-4.4,4.9c-4.6,7.1-8.2,14.6-8.5,23.3c-0.1,3.6-1.3,7.2-1.1,10.9
		c0.6,9.3,3.6,17.6,10.3,24.3C118.7,102,124.1,104.8,133.4,104.4z"/>
	<path d="M48.2,86.1c0.3-0.6,0.2-1.3,0.2-2c-0.2-8.7,0.2-17.5,0.1-26.2c-0.1-3.3,0.6-6.5,2-9.6c0.8-1.7,2-2.9,3.2-4.2
		c0.3-0.3,0.8-0.7,1.2-0.4c1.3,1,2.4,0,3.6-0.1c0.8-0.1,1.8-0.6,2,0.9c0.1,0.8,1.1,0.6,1.7,0.7c0.7,0.1,1.6,0,1.3,1.2
		c-0.1,0.4,0.2,0.8,0.5,0.9c1.1,0.3,1,0.9,0.8,1.9c-0.3,1.3-0.6,2.5-1.5,3.6c-1.3,1.8-1.7,4.1-1.7,6.4c0,2.3-0.4,4.6-0.7,6.8
		c-0.3,2.2-0.5,4.4,0,6.6c0.4,1.9,0.3,3.8,0.6,5.7c1,7.8,1.2,15.6,0.8,23.5c-0.1,1.4,0,2.8,0.1,4.2c0,1-0.3,1.6-1.2,2.2
		c-2,1.5-4.1,1.9-6.5,1.5c-1.7-0.3-3.4-0.3-5.1-0.4c-1.4-0.1-2.6-0.7-3.3-1.9c-0.1-0.1-0.1-0.3-0.2-0.4c-1.3-1.5-2.3-3-1.1-5.1
		c0.4-0.7,0-1.4-0.5-2.1c-1.7-2.1-3.3-4.3-5-6.3C33.3,86.1,27.1,78.8,21.7,71c-2.1-3.1-4.2-6.2-6.7-9c-0.7-0.8-1.3-2.1-2.3-1.8
		c-1.2,0.3-0.8,1.9-1,2.9c-0.7,4.4-0.3,8.8-0.1,13.2c0.4,8.1,1.5,16.2,0.4,24.4c-0.2,1.8-0.2,3.6,0.3,5.3c0.2,0.8,0.1,1.5-0.4,2.1
		c-0.8,1.2-1.7,2.3-2.5,3.4c-0.5,0.6-1.2,0.9-2,0.7c-0.7-0.1-1.5-0.3-2.2-0.5c-0.8-0.2-2,0.3-2.3-0.4c-0.5-1.1-1.3-2.3-1.1-3.6
		c0.4-2.9-0.2-5.7-0.4-8.5C0.8,90.9,0.2,82.5,0,74.2c-0.1-4.2,0.5-8.4,1.1-12.5c0.4-2.4,0.6-4.7-0.3-7.1c-0.8-2,0.1-3.8,0.9-5.6
		c1.2-2.7,3.2-3.9,6.2-4.3c3.4-0.4,6.2,0.8,8.8,2.4c3.6,2.2,6.5,5.2,8.8,8.7c3.8,5.9,7.7,11.8,11.6,17.7c2.2,3.3,5.1,6.2,7.7,9.3
		c0.8,1,1.6,2,2.4,3C47.4,86.1,47.7,86.3,48.2,86.1z"/>
	<path d="M458.6,121.8c-1.8,0.9-3.2,1-4.4-0.5c-0.3-0.4-0.8-0.7-1.3-0.9c-0.7-0.3-1.3,0-1.2,0.8c0.1,0.9,0.3,1.8,0.4,2.6
		c-0.4,0.4-1,0.5-1.3,0.3c-2.1-2-5.1-2.8-7.1-5.1c-1.9-2.2-2.9-4.8-4.3-7.1c-4.1-6.8-8.1-13.6-11.6-20.8c-1.8-3.7-3.4-7.3-5.2-11
		c-0.2-0.5-0.5-1-0.7-1.5c-1-1.8-1.1-1.8-2.9-0.9c-1.9,1-3.8,2.1-5.8,2.9c-2.1,0.9-4.2,1.4-6.4,2.1c-1.1,0.4-2.3,0.6-3.4,1
		c-0.5,0.2-0.9,0.3-1.1,1c-0.5,1.9-1.3,2.2-2.9,1.3c-1.4-0.8-2.8-0.5-3.6,1c-0.7,1.3-1.3,2.6-1.2,4.1c0,3.6-0.6,7.2-0.7,10.8
		c-0.1,3.7-0.6,7.3-0.7,11c-0.1,2.6,0.2,5.6-2,7.9c-1.5,1.6-3.2,2.4-5.2,2c-1.6-0.3-3,0.3-4.5,0.6c-2.2,0.5-4.1,0.2-5.5-1.7
		c-0.9-1.2-0.9-2.6-0.8-3.9c0.1-3.5,0.3-7,0.6-10.5c1.1-11.4,2-22.8,3.3-34.2c0.9-7.9,1.2-15.8,2.5-23.7c1-6.1,2-12.1,2.2-18.3
		c0.1-2.5,0.1-5.1,0.1-7.6c0-0.9-0.1-1.6-0.9-2.1c-2.1-1.3-1.9-3.4-0.9-5c1-1.7,1.7-3.6,3.3-5.1c1.8-1.7,3.7-2,5.7-1.1
		c1.3,0.6,2.4,0.5,3.6,0c3.8-1.5,7.5-2.9,11.5-3.9c6.6-1.6,13.4-2,20.1-1.3c6.5,0.6,12.7,2.8,18.1,6.6c3.7,2.6,6.8,5.8,9,9.8
		c0.4,0.6,0.6,1.3,0.7,2c0.1,0.6,0.2,1.3,0.9,1.5c1.5,0.5,1.7,1.8,1.6,3c-0.1,1.3,0.4,2.5,0.2,3.7c-0.1,0.8,0.1,1.6,0.8,2.2
		c0.4,0.4,0.6,0.9,0.5,1.5c-0.9,3.5,0.2,7.2-1.7,10.5c0.6,2-0.9,3.3-1.7,4.8c-1.8,3.7-3.9,7.2-6.4,10.5c-1.2,1.6-2.7,2.8-4.7,3.4
		c-2.9,0.9-4.9,3.4-7.4,4.8c-0.6,0.3-0.7,1-0.5,1.7c0.2,0.5,0.4,1,0.6,1.5c3.3,6.8,6.5,13.7,9.8,20.5c1.5,3.1,3.1,6.1,4.8,9.1
		c1.6,2.9,3.4,5.7,5.5,8.3c1.4,1.8,1.9,3.9,2.3,6c0.1,0.5,0.3,1.2-0.1,1.6C457.6,119.2,457.9,120.5,458.6,121.8z M398.2,67.5
		c2.3-1.1,4.8-1.7,6.7-3.4c0.6-0.6,1.3-0.9,2.1-1.2c3.8-1.5,7.7-3.2,11.2-5.2c3-1.8,6-3.6,8.8-5.6c6.2-4.4,11-9.8,12.7-17.2
		c2.1-9.2-1.3-14.4-10.5-16.2c-2.8-0.5-5.7-0.2-8.5-0.2c-6.7-0.1-12.8,1.6-18.7,4.5c-2.3,1.1-2.3,1.2-1.9,3.7c0.4,3.1,1.2,6.2,1,9.4
		c-0.1,2.1-0.8,4.2-0.3,6.4c0.4,0.3,0.7-0.6,1.3-0.1c-0.6,0.8-1.6,1.5-1.8,2.5c-0.4,2.3-0.8,4.6-1,6.9c-0.2,2.2,0.3,4.4-1,6.5
		c-0.1,0.2-0.2,0.6-0.1,0.8c0.9,1.5,0.1,2.9-0.1,4.4C397.9,64.7,397.5,66,398.2,67.5z M409.2,80.6c0.5,0.6,1.1,0.3,1.7,0.3
		c0.6,0,1.4-0.3,1.3-1c-0.2-1-1-0.5-1.5-0.2C410.2,79.9,409.5,79.9,409.2,80.6z"/>
	<path d="M351.8,110.1c-1.4-0.4-2.4-1-3.5-1.2c-1-0.1-1.6-0.9-2.1-1.6c-1-1.5-2.1-3-3-4.6c-2.9-5.2-5.6-10.4-8.2-15.8
		c-0.6-1.3-1.5-2-2.9-2.2c-3.9-0.6-7.7-0.3-11.5,0.3c-7.9,1.2-15.7,2.4-23.7,2.6c-1.2,0-1.9,0.4-2.3,1.7c-0.8,2.5-1.3,5-1.8,7.5
		c-0.6,3.2-2.4,5.7-3.9,8.4c-0.7,1.3-1.6,2.5-2.5,3.8c-0.7,0.9-1.5,1.7-2.5,2.3c-0.9,0.5-1.6,1.1-2.4,1.7c-2.4,1.8-5,2-7.7,0.8
		c-1.5-0.7-1.9-2.3-2.7-3.6c-0.5-0.7,0.2-1.4,0.4-2.1c0.9-2.8,1.4-5.8,2.1-8.6c1.9-7.4,3.9-14.8,6.9-21.9
		c4.9-11.6,10.4-23,15.7-34.4c1.7-3.7,3.8-7.2,5.7-10.9c0.7-1.4,1.3-2.9,1.9-4.4c0.5-1.3,0.5-2.9,2.2-3.4c0.1,0,0.2-0.2,0.3-0.3
		c0.8-1.1,1.3-2.7,2.3-3.2c1.1-0.5,2.4-0.8,3.5-1.4c2.1-1.1,4.2-0.9,5.7,1c1.5,1.7,3.1,3,5.2,4c2.1,1,3.5,2.9,4.9,4.7
		c1.4,1.6,2.8,3.1,4.1,4.8c2.8,3.7,4.2,8.1,6.4,12c0.7,1.3,1.3,2.6,2,3.8c1.2,2,2.2,4.1,3,6.3c1.3,3.5,2.7,6.8,4.6,10.1
		c1,1.7,1.8,3.5,2.5,5.3c1.2,3.2,2.6,6.3,4.7,9.1c2.1,2.8,3.4,6,4.4,9.4c0.5,1.7,0.8,3.5,1.3,5.3c0.3,1.1,0.1,1.8-0.8,2.3
		c-0.9,0.6-1.2,1.2-1.3,2.4c-0.1,1.1-0.4,2.5-1.7,3.2c-0.8,0.4-1.1,1.2-1.6,1.9c-0.6,0.7-0.9,1.5-1.9,1.8
		C352.4,107.5,352.1,108.8,351.8,110.1z M296.9,78c0.4,0.5,0.8,0.4,1.2,0.3c2.6-0.3,5.2-0.8,7.8-1.4c4.9-1.1,9.7-2.3,14.7-2.6
		c1.8-0.1,3.6-0.2,5.4-0.4c2.4-0.3,2.5-0.5,1.5-2.6c-0.7-1.6-1.5-3.1-2.3-4.7c-3.3-7.2-7.1-14.2-9.9-21.7c-0.2-0.5-0.3-1-1-1.3
		c-1.6,2.2-2.8,4.7-4.3,7c-1.7,2.6-3,5.4-3.9,8.4c-1,3.2-2.3,6.3-4.2,9c-0.6,0.9-0.9,1.9-1.5,2.8C299.1,73.1,298.5,75.8,296.9,78z"
		/>
	<path d="M202.7,97.9c0.1-9.3-0.5-16.9-1.8-24.5c-0.5-2.9-0.7-5.9-0.5-8.9c0.1-3.1-0.3-6.1-0.5-9.2c-0.2-4.3-0.3-8.7-0.3-13
		c0-3.3-0.1-6.5-0.8-9.7c-0.8-3.5-0.7-7-0.6-10.5c0.1-3,1.4-5.3,3.6-7.3c2.6-2.2,5.6-3.7,8.9-4.4c8.9-2.1,17.8-4.6,26.9-5.8
		c3.8-0.5,7.7-1.2,11.5-0.4c1.2,0.2,2.5,0.1,3.8,0.2c8.3,0.2,14.9,4.1,20.5,10c1.7,1.8,2.8,3.9,4.3,5.8c1.6,2.1,2.3,4.4,2.3,7
		c0,1.2,0,2.5,0.6,3.7c0.5,1,0.6,2.3,0.3,3.4c-0.5,2.2-0.7,4.4-0.8,6.6c-0.3,3.4-1.2,6.5-2.6,9.6c-1,2.2-3,3.6-4.6,5.2
		c-0.4,0.4-1.1,0.7-1.5,1.2c-4.2,4.6-9.8,7.1-15.3,9.9c-3.7,1.9-7.3,3.8-11,5.6c-1.5,0.7-3.1,1.6-4.8,1.7c-2.6,0.3-5,1.5-7.7,1.1
		c-1.6-0.2-3.1,0.9-4.6,1.4c-0.6,0.2-1,0.8-1.1,1.4c-0.5,2.1-1.2,4.2-1,6.4c0.2,2.3,0,4.7-0.4,7c-0.7,4.3-1,8.7-1.4,13.1
		c-0.1,1.4,0.4,2.7,0.8,3.9c0.7,2.2,0.3,4.1-0.4,6.1c-1.1,2.9-3,5.2-5.3,7.2c-0.5,0.5-1.3,0.7-2,0.8c-1.4,0.3-2.6,0.8-3.6,1.8
		c-0.8,0.7-1.6,0.8-2.5,0.5c-1.7-0.6-3.4-1.3-5-1.9c-1.6-0.6-2.3-1.9-2.4-3.6C203.1,111.6,202.3,104,202.7,97.9z M227.6,39.4
		c0.5,2.2-0.3,3.9-1.1,5.5c-0.7,1.3-1,2.7-1.2,4.1c-0.2,1.6,0.1,3.2-0.6,4.8c-0.4,0.8,0.4,1.2,1.1,0.9c1.6-0.7,3.2-0.6,4.8-0.5
		c1.4,0.1,2.9,0.1,4-1.2c0.5-0.5,1.1-0.5,1.8-0.4c1.6,0.1,2.9-0.5,4.4-1.1c2.1-0.8,3.6-2.3,5.3-3.5c2.9-2.1,5.8-4.2,8.4-6.6
		c2.1-2,4-4.2,5.5-6.6c1.1-1.8,1.7-3.8,2-5.8c0.7-4.1-1.5-6.9-4.2-9.5c-0.2-0.2-0.5-0.3-0.7-0.4c-1.9-0.7-3.8-1.2-5.8-1
		c-4.3,0.5-8.6,1.2-12.7,2.3c-0.5,0.1-1.1,0.1-1.1,1.2c3.2-0.3,6.5-0.6,9.9-0.9c-1.1,1.5-2.5,0.8-3.7,1.2c-3.8,1.5-7.8,1.9-11.9,1.9
		c-1.6,0-3.2,0.1-4.8,0.5c-1.7,0.4-2.8,2.3-2.2,4c0.1,0.4,0.4,0.5,0.8,0.6c0.5,0.1,1-0.6,1.4,0.1c-1.8,2.3-1.9,5.4-3.2,7.9
		c-0.3,0.7,0,1.4,0.5,2C225.2,39.9,226.3,40.2,227.6,39.4z"/>
	<path d="M729.5,105c-0.3-0.3,0.4-1.5-0.8-1c-3.1,1.3-6.6,1.3-9.7,2.6c-3,1.2-5.9,2.6-8.8,3.9c-0.7-0.2,0.3-1.6-0.8-1
		c-3.6,1.7-7.7,2.1-11.5,3c-2.3,0.5-4.9,0-7.1,1c-0.3,0.1-0.9,0-1,0.2c-1.2,1.9-3.8,2.1-5.3,3.8c-1.7,1.9-3,1.6-4.2-0.6
		c-1-1.9-1.4-4-1.5-6.1c-0.1-1.4,0-2.7,0-4.1c0-0.7,0.1-1.4-0.5-2.1c-1.1-1.3-0.9-2.7-0.1-4.1c0.6-1,0.7-2,0.7-3
		c0.3-11.7,0.5-23.4,1-35.1c0.3-7.3,1.1-14.5,1.4-21.8c0.3-5.4,0.9-10.7,0.4-16.1c-0.2-2.4,0.2-5-1.3-7.2c0.2-3.5-1.2-6.9-0.5-10.5
		c0.1-0.7,0.4-1.2,1.1-1.6c1.2-0.6,2.3-1.2,3.5-1.8c1.4-0.6,3.2-0.2,3.9,1c0.8,1.2,1.6,2.5,2.3,3.8c0.9,1.5,1.1,1.6,3,1.1
		c2.9-0.7,5.8-1.6,8.8-2.4c7.1-1.8,14.4-2.7,21.8-3.2c2.8-0.2,5.6-0.4,8.3-0.7c2.6-0.3,5.3,0,7.6,1c1.9,0.8,3.2,2.1,3.2,4.3
		c0,1.5-0.3,2.9-0.3,4.3c0,0.6-0.2,1,0.4,1.5c0.7,0.6,0.3,1.2-0.6,1.4c-4.7,1.2-9.3,2.4-14.3,2.5c-4.6,0.1-9.2,1-13.7,2.1
		c-1.4,0.4-2.7,1-3.9,1.5c-3.7,1.6-7.6,1.7-11.6,1.5c-2.2-0.1-2.3-0.1-1.9,1.9c0.8,3.7,0.8,7.5,1.1,11.2c0.2,1.8,0.2,3.5,0.4,5.3
		c0.4,3.1-0.8,6.2-0.4,9.3c0,0.4,0.1,0.8,0.1,1.1c0.7,0.4,1.3,0.1,1.9,0c7.4-1.8,14.9-3.1,22.4-4.5c1.9-0.4,3.8-0.8,5.7-1.3
		c4.3-1.1,8.7-1.3,13,0.1c1,0.3,2,0.6,1,1.8c-0.4,0.5-0.1,0.9,0.3,1.2c0.6,0.4,1.1,0.8,1.8,1.1c0.7,0.3,1.5,0.4,1.3,1.2
		c-0.2,0.7-0.6,1.4-1.5,1.5c-0.4,0.1-0.9,0.1-1.3,0.1c-0.2,1.2,0.8,1.5,1.6,1.9c1.1,0.5,1,1.3,0.3,1.9c-0.7,0.6-1.4,1.4-2.6,1.4
		c-0.7,0-1.4,0.3-2.1,0.4c-0.5,0.1-0.7,0.5-0.6,0.9c0.1,0.6,0.6,0.5,1,0.4c0.1,0,0.2,0,0.2-0.1c0.5-0.4,1.2-0.9,1.6-0.2
		c0.3,0.7-0.7,1.2-1.3,1.1c-1.8-0.2-3.1,1-4.8,0.9c-0.9,0-1.6,0.4-2-0.8c-0.2-0.5-1-0.5-1.7-0.3c-1,0.4-2,0.7-3,1
		c-0.8,0.3-1.5,0.6-2.3,0.4c-2.5-0.6-5,0-7.4,0.6c-3.3,0.8-6.7,1-10,1.7c-3.5,0.7-7,1.5-10.6,1.7c-1,0.1-1.4,0.7-1.6,1.6
		c-0.5,2.5-0.5,4.9,0,7.4c0.3,1.3,0.4,2.7,0.1,4c-0.3,1.6-0.5,3.2,0.1,4.7c0.2,0.6-0.1,1.1-0.2,1.7c-0.5,3.3-0.5,6.5-0.4,9.8
		c0.1,1.8,0.3,2,2.3,1.5c4.8-1.2,9.6-2.6,14.5-3.8c7.4-1.7,14.9-3.1,22.4-4.4c3.7-0.6,7.4-0.9,11.1-0.5c0.9,0.1,1.8,0.2,2.4,0.8
		c0.1,0.6-0.3,0.7-0.7,0.9c-1,0.6-0.8,1.3,0.1,1.7c0.9,0.4,1.3,1.6,2.7,1.2c0.1,0,0.5,0.1,0.5,0.1c0.2,1.5,2.2,2.1,2.4,3.6
		c-0.2,0.1-0.3,0.3-0.5,0.3c-0.7,0.2-1.8,0.2-1.7,1.2c0.1,0.8,1,0.7,1.7,0.9c0.3,0,0.5,0.1,0.7,0.3c0.3,0.3,0.3,0.6-0.1,0.8
		c-0.6,0.3-1.2,0.3-1.8,0.2c-3.2-0.6-5.9,0.3-8.4,2c-0.8,0.6-1.7,0.8-2.7,0.9c-0.6-0.3-0.1-0.6-0.1-0.8c0.3-0.9-0.1-1.4-1-1
		c-2.9,1.1-6.1,1.1-8.8,2.7C731.7,104.8,730.6,104.9,729.5,105L729.5,105z"/>
</g>
</svg>
