<?xml version="1.0" encoding="utf-8"?>
<!-- Generator: Adobe Illustrator 18.1.0, SVG Export Plug-In . SVG Version: 6.00 Build 0)  -->
<svg version="1.1" id="Layer_1" xmlns="http://www.w3.org/2000/svg" xmlns:xlink="http://www.w3.org/1999/xlink" x="0px" y="0px"
	 viewBox="0 0 334.9 124.6" enable-background="new 0 0 334.9 124.6" xml:space="preserve">
<g>
	<path d="M218.8,59.9c-0.2-6,0.4-12.8,1.6-19.6c1.3-7.9,1.5-16,2.2-24c0.1-1-0.1-1.9-0.1-2.9c-0.2-2.7,1.8-4.9,4.5-4.6
		c4.7,0.6,8.5,2.7,10.9,7c0.5,1,0.4,2.2,0.7,3.2c1,3.8,1.3,7.7,1.2,11.5c-0.2,6.8-0.1,13.7-1,20.5c-0.4,2.8-0.4,5.7-0.4,8.5
		c0,2.7-0.8,5.3-1.2,7.9c-0.4,2.9-0.5,5.8,0,8.7c0.3,1.8,0.7,3.5,1,5.3c0.5,2.3,1.1,4.7,2.5,6.5c1.4,1.8,2.4,3.9,4,5.4
		c2.4,2.4,5.5,3.9,8.7,5c2.8,0.9,5-0.3,7-2.1c1-0.9,1.8-1.9,2.7-2.9c0.5-0.6,0.8-1.2,1.1-2c2.4-8.4,3.7-16.9,4-25.6
		c0.1-4.3-0.3-8.6-0.3-12.9c-0.1-3.5-0.1-7.1,0.2-10.6c0.3-4.8,0.5-9.5,1.1-14.3c0.4-3.1,0.6-6.3,2.5-9c1-1.4,2.1-2.7,3.1-4.1
		c0.7-1,2-0.8,3.1-0.6c1.7,0.4,3.3,0.7,4.9-0.3c1-0.6,3,0.2,3.8,1.3c0.4,0.6,0.6,1.3,1.6,1.3c0.9,0,1,0.7,0.8,1.5
		c-0.4,2.1-0.6,4.2-1.2,6.3c-0.4,1.2-0.1,2.7-1.2,3.7c-0.1,0.1-0.1,0.3-0.1,0.4c0.6,2.6-0.7,5.1-0.5,7.7c0.1,2.1,0.2,4.3,0.1,6.4
		c-0.2,3.3-0.1,6.6-0.2,9.9c-0.1,4.2,0.1,8.4-0.4,12.6c-0.4,3-0.5,6.1-0.7,9.1c0,0.3,0,0.6-0.1,0.8c-1.5,4.2-1.8,8.7-3.7,12.9
		c-2.9,6.1-6.6,11.5-11.8,16c-3.8,3.3-8.4,5.2-12.9,7.2c-3.2,1.4-6.6,1.3-9.9,0.3c-9.1-2.8-16.1-8.3-21-16.5
		c-3.5-5.8-5-12.1-5.6-18.7C218.9,71.2,218.9,66,218.8,59.9z"/>
	<path d="M111.1,70.6c0.2-6.5,2.1-12.6,4.2-18.7c2.1-6.1,5.4-11.7,9.1-16.9c4.1-6,8.9-11.5,14.8-15.9c0.9-0.6,1.8-0.9,2.8-1.3
		c1.7-0.6,3.1-1.5,4.1-3c1.5-2.6,4.2-3.8,6.8-4.9c1.1-0.4,2.6-0.5,4-0.1c1,0.3,2,0.4,3,0.7c4.5,1.3,9.2,2.1,13.1,5.1
		c1.8,1.3,3.9,2.2,5.6,3.7c1,0.9,2.2,1.7,2.7,3.1c0.4,1,1.4,1.3,2.2,1.7c1,0.6,2.3,0.9,2.1,2.6c0,0.5,0.8,1.1,1.2,1.6
		c1.1,1.4,1.1,1.4,2.2,0c0.6-0.7,1.5-0.7,1.8,0.2c0.6,1.9,1.9,3.4,3,5c0.7,0.9,1.2,2.1,1.5,3.3c0.4,1.9,1,3.7,1.7,5.4
		c0.7,1.9,1.4,3.9,1.4,6c0.1,3.5,0.5,6.9,0.8,10.3c0,0.2,0,0.4,0,0.5c0.7,2.2,0.4,4.4,0,6.6c-0.2,1.1-0.6,2.2,0.3,3.2
		c0.4,0.4-0.1,1-0.2,1.5c-1.6,6.3-2.7,12.6-5,18.8c-1.3,3.6-2.4,7.2-4,10.7c-0.5,1.1-0.3,1.7,0.6,2.4c4,3.7,8,7.4,12,11.1
		c0.8,0.8,1.7,1.4,1.3,2.8c-0.2,0.7,1,1.4,0.8,1.8c-1,1.4-0.8,3.3-1.7,4.6c-0.4,0.5-1.3,0.8-2.1,1c-4.8,0.7-9.3,0-12.9-3.7
		c-1.9-2-4-3.9-5.8-5.9c-1-1.1-1.9-1.1-3-0.5c-3.4,1.9-6.9,3.6-10.8,4.3c-0.6,0.1-1.1,0.4-1.6,0.8c-0.5,0.4-1,0.8-1.4-0.1
		c-0.2-0.5-0.7-0.3-1.2-0.3c-2.1,0-4.1,0-6.2,0.1c-6.2,0.2-12.2-0.7-18.2-1.8c-4.7-0.8-8.5-3.4-11.7-6.8c-2.8-2.9-5.5-6-8.1-9.1
		c-4.4-5-7-10.9-8.1-17.5C111.8,79,111.2,74.9,111.1,70.6z M153.8,102.2c3.8,0.1,7.4-0.7,10.6-3.2c1.9-1.4,1.9-1.7,0.3-3.4
		c-2.5-2.6-5-5.3-7.2-8.2c-1.7-2.3-1.1-5.3,1.4-6.7c2.6-1.5,5.2-1.8,7.7,0c0.3,0.2,0.6,0.4,0.9,0.6c2.5,1.4,4.5,3.5,6.6,5.4
		c1.6,1.5,2.1,1.5,3.4-0.4c0.3-0.4,0.5-0.9,0.8-1.4c2.4-4.6,4.1-9.3,4.4-14.6c0.2-4.8,1-9.5-0.4-14.2c-1.6-5.3-3.8-10.2-6.9-14.8
		c-2.8-4.2-5.6-8.6-10.5-10.8c-0.2-0.1-0.3-0.4-0.4-0.6c-0.9-0.9-1.2-2.5-2.9-2.1c-0.3,0.1-0.3-0.3-0.3-0.5c0-1.5-1.2-1.4-2-1.2
		c-5.2,1.2-10.2,2.8-13.1,7.8c-0.4,0.7-0.8,1.4-1.3,2c-2.1,2.6-3.7,5.6-6.1,8c-2.3,2.3-4.4,5-4.7,8.5c-0.4,5.4-1.8,10.6-2.7,15.9
		c-0.5,2.9-0.8,5.9,0.2,8.7c1.1,3.2,1.9,6.5,3,9.6c1.3,3.4,3,6.4,5.6,8.9c1.8,1.7,4.2,2.6,6,4.3
		C148.1,101.8,150.7,102.6,153.8,102.2z M130,106.8c1.1,1.2,2.2,2.4,3.3,3.5c0.9,0.9,2,1.6,3.3,2c0.6,0.2,1.2,0.5,1.5-0.3
		c0.2-0.6-0.2-1-0.7-1.2C134.7,109.9,132.3,108.5,130,106.8z"/>
	<path d="M92.3,116c-1.6-0.4-2.7-1.1-4-1.3c-1.1-0.2-1.8-1-2.4-1.9c-1.2-1.7-2.4-3.4-3.4-5.2c-3.3-5.9-6.4-11.9-9.3-18
		c-0.7-1.5-1.7-2.3-3.3-2.5c-4.4-0.6-8.8-0.3-13.2,0.4c-9,1.3-17.9,2.8-27,3c-1.4,0-2.1,0.5-2.6,1.9c-0.9,2.8-1.5,5.7-2,8.6
		c-0.7,3.7-2.8,6.5-4.4,9.6c-0.8,1.5-1.9,2.9-2.9,4.3c-0.8,1.1-1.7,2-2.9,2.6c-1,0.5-1.9,1.2-2.8,1.9c-2.7,2.1-5.7,2.3-8.8,1
		c-1.7-0.8-2.1-2.7-3.1-4.1c-0.6-0.8,0.2-1.6,0.4-2.4c1-3.2,1.6-6.6,2.4-9.8c2.2-8.5,4.5-16.9,7.9-25c5.6-13.3,11.9-26.2,17.9-39.3
		c2-4.2,4.4-8.3,6.5-12.4c0.8-1.6,1.5-3.3,2.1-5c0.5-1.5,0.6-3.3,2.5-3.9c0.1,0,0.3-0.2,0.4-0.4c0.9-1.3,1.5-3.1,2.7-3.6
		c1.3-0.6,2.7-0.9,4-1.6c2.4-1.3,4.7-1,6.6,1.1c1.7,1.9,3.6,3.4,5.9,4.5c2.4,1.1,4,3.4,5.6,5.3c1.6,1.8,3.2,3.6,4.7,5.5
		c3.2,4.2,4.8,9.2,7.3,13.7c0.8,1.4,1.4,2.9,2.3,4.4c1.4,2.3,2.5,4.7,3.4,7.2c1.4,3.9,3.1,7.8,5.3,11.5c1.1,1.9,2,4,2.8,6.1
		c1.4,3.6,3,7.2,5.3,10.4c2.4,3.2,3.9,6.9,5,10.7c0.6,2,0.9,4,1.5,6c0.4,1.3,0.1,2-0.9,2.7c-1,0.6-1.4,1.4-1.5,2.7
		c-0.1,1.3-0.5,2.9-1.9,3.7c-0.9,0.5-1.2,1.4-1.9,2.1c-0.7,0.7-1.1,1.7-2.2,2.1C93,113,92.6,114.5,92.3,116z M29.5,79.3
		c0.5,0.6,0.9,0.4,1.3,0.4c3-0.4,6-0.9,8.9-1.6c5.6-1.2,11.1-2.7,16.8-3c2.1-0.1,4.1-0.2,6.2-0.4c2.7-0.3,2.9-0.6,1.7-3
		c-0.8-1.8-1.8-3.6-2.6-5.4C58.1,58,53.8,50,50.7,41.4c-0.2-0.5-0.3-1.2-1.2-1.5c-1.9,2.5-3.2,5.4-5,8c-2,3-3.4,6.2-4.5,9.6
		c-1.2,3.6-2.6,7.2-4.8,10.3c-0.7,1-1.1,2.2-1.7,3.2C32,73.7,31.3,76.8,29.5,79.3z"/>
	<path d="M333.2,19.6c0.5,7.3,0.9,14.4,1.5,21.4c0.4,4.5,0,9-0.7,13.4c-1.1,6.7-0.9,13.3-0.4,20c0.4,5,0.2,10,0.2,15
		c0,6.3-0.2,12.6,0.6,18.8c0.4,3.2,0.1,6.2-2.3,8.6c-0.4,0.4-0.9,1.2-1.3,1.1c-2.6-0.3-4.2,1.4-6.2,2.5c-2.9,1.6-6,0.6-9,0.2
		c-3-0.4-4.4-2.7-4.7-5.5c-0.7-5.2-1.2-10.3-0.7-15.5c1.6-16.4,1.6-33,3.1-49.4c0.8-9.2,1-18.4,1.5-27.6c0.2-3.5,0.5-7,0.8-10.5
		c0.2-2.7-0.3-5-2-6.9c-0.9-1-0.8-1.6,0.3-2.3c0.5-0.3,0.9-0.8,1.3-1.2c1.7-1.7,3.7-2.4,6.2-1.8c3.9,0.9,7.7,2,10.2,5.6
		c1.1,1.6,1.9,3.2,1.8,5.2C333.2,13.8,333.7,16.8,333.2,19.6z"/>
</g>
</svg>
